ply
format ascii 1.0
element vertex 1331
property float x
property float y
property float z
property uchar red
property uchar green
property uchar blue
end_header
0.0 0.0 50.0 13 241 0
0.0 0.0 45.0 12 242 0
0.0 0.0 40.0 11 243 0
0.0 0.0 35.0 10 244 0
0.0 0.0 30.0 9 245 0
0.0 0.0 25.0 8 246 0
0.0 0.0 20.0 7 247 0
0.0 0.0 15.0 6 248 0
0.0 0.0 10.0 5 249 0
0.0 0.0 5.0 5 249 0
0.0 0.0 0.0 5 249 0
0.0 -5.0 50.0 13 241 0
0.0 -5.0 45.0 12 242 0
0.0 -5.0 40.0 11 243 0
0.0 -5.0 35.0 10 244 0
0.0 -5.0 30.0 9 245 0
0.0 -5.0 25.0 8 246 0
0.0 -5.0 20.0 7 247 0
0.0 -5.0 15.0 6 248 0
0.0 -5.0 10.0 5 249 0
0.0 -5.0 5.0 5 249 0
0.0 -5.0 0.0 5 249 0
0.0 -10.0 50.0 13 241 0
0.0 -10.0 45.0 12 242 0
0.0 -10.0 40.0 11 243 0
0.0 -10.0 35.0 10 244 0
0.0 -10.0 30.0 9 245 0
0.0 -10.0 25.0 8 246 0
0.0 -10.0 20.0 7 247 0
0.0 -10.0 15.0 6 248 0
0.0 -10.0 10.0 5 249 0
0.0 -10.0 5.0 5 249 0
0.0 -10.0 0.0 4 250 0
0.0 -15.0 50.0 13 241 0
0.0 -15.0 45.0 12 242 0
0.0 -15.0 40.0 11 243 0
0.0 -15.0 35.0 10 244 0
0.0 -15.0 30.0 8 246 0
0.0 -15.0 25.0 7 247 0
0.0 -15.0 20.0 6 248 0
0.0 -15.0 15.0 6 248 0
0.0 -15.0 10.0 5 249 0
0.0 -15.0 5.0 4 250 0
0.0 -15.0 0.0 4 250 0
0.0 -20.0 50.0 13 241 0
0.0 -20.0 45.0 12 242 0
0.0 -20.0 40.0 11 243 0
0.0 -20.0 35.0 9 245 0
0.0 -20.0 30.0 8 246 0
0.0 -20.0 25.0 7 247 0
0.0 -20.0 20.0 6 248 0
0.0 -20.0 15.0 5 249 0
0.0 -20.0 10.0 5 249 0
0.0 -20.0 5.0 4 250 0
0.0 -20.0 0.0 4 250 0
0.0 -25.0 50.0 13 241 0
0.0 -25.0 45.0 12 242 0
0.0 -25.0 40.0 11 243 0
0.0 -25.0 35.0 9 245 0
0.0 -25.0 30.0 8 246 0
0.0 -25.0 25.0 7 247 0
0.0 -25.0 20.0 6 248 0
0.0 -25.0 15.0 5 249 0
0.0 -25.0 10.0 4 250 0
0.0 -25.0 5.0 4 250 0
0.0 -25.0 0.0 4 250 0
0.0 -30.0 50.0 13 241 0
0.0 -30.0 45.0 12 242 0
0.0 -30.0 40.0 11 243 0
0.0 -30.0 35.0 9 245 0
0.0 -30.0 30.0 8 246 0
0.0 -30.0 25.0 7 247 0
0.0 -30.0 20.0 6 248 0
0.0 -30.0 15.0 5 249 0
0.0 -30.0 10.0 4 250 0
0.0 -30.0 5.0 4 250 0
0.0 -30.0 0.0 4 250 0
0.0 -35.0 50.0 13 241 0
0.0 -35.0 45.0 12 242 0
0.0 -35.0 40.0 10 244 0
0.0 -35.0 35.0 9 245 0
0.0 -35.0 30.0 8 246 0
0.0 -35.0 25.0 7 247 0
0.0 -35.0 20.0 6 248 0
0.0 -35.0 15.0 5 249 0
0.0 -35.0 10.0 4 250 0
0.0 -35.0 5.0 4 250 0
0.0 -35.0 0.0 3 251 0
0.0 -40.0 50.0 13 241 0
0.0 -40.0 45.0 12 242 0
0.0 -40.0 40.0 10 244 0
0.0 -40.0 35.0 9 245 0
0.0 -40.0 30.0 8 246 0
0.0 -40.0 25.0 7 247 0
0.0 -40.0 20.0 6 248 0
0.0 -40.0 15.0 5 249 0
0.0 -40.0 10.0 4 250 0
0.0 -40.0 5.0 4 250 0
0.0 -40.0 0.0 3 251 0
0.0 -45.0 50.0 13 241 0
0.0 -45.0 45.0 12 242 0
0.0 -45.0 40.0 10 244 0
0.0 -45.0 35.0 9 245 0
0.0 -45.0 30.0 8 246 0
0.0 -45.0 25.0 7 247 0
0.0 -45.0 20.0 6 248 0
0.0 -45.0 15.0 5 249 0
0.0 -45.0 10.0 4 250 0
0.0 -45.0 5.0 4 250 0
0.0 -45.0 0.0 3 251 0
0.0 -50.0 50.0 13 241 0
0.0 -50.0 45.0 12 242 0
0.0 -50.0 40.0 10 244 0
0.0 -50.0 35.0 9 245 0
0.0 -50.0 30.0 8 246 0
0.0 -50.0 25.0 7 247 0
0.0 -50.0 20.0 6 248 0
0.0 -50.0 15.0 5 249 0
0.0 -50.0 10.0 4 250 0
0.0 -50.0 5.0 4 250 0
0.0 -50.0 0.0 3 251 0
5.0 0.0 50.0 13 241 0
5.0 0.0 45.0 12 242 0
5.0 0.0 40.0 11 243 0
5.0 0.0 35.0 10 244 0
5.0 0.0 30.0 9 245 0
5.0 0.0 25.0 8 246 0
5.0 0.0 20.0 7 247 0
5.0 0.0 15.0 6 248 0
5.0 0.0 10.0 5 249 0
5.0 0.0 5.0 5 249 0
5.0 0.0 0.0 5 249 0
5.0 -5.0 50.0 13 241 0
5.0 -5.0 45.0 0 255 0
5.0 -5.0 40.0 0 255 0
5.0 -5.0 35.0 0 255 0
5.0 -5.0 30.0 0 255 0
5.0 -5.0 25.0 0 255 0
5.0 -5.0 20.0 0 255 0
5.0 -5.0 15.0 0 255 0
5.0 -5.0 10.0 0 255 0
5.0 -5.0 5.0 0 255 0
5.0 -5.0 0.0 4 250 0
5.0 -10.0 50.0 13 241 0
5.0 -10.0 45.0 0 255 0
5.0 -10.0 40.0 0 255 0
5.0 -10.0 35.0 0 255 0
5.0 -10.0 30.0 0 255 0
5.0 -10.0 25.0 0 255 0
5.0 -10.0 20.0 0 255 0
5.0 -10.0 15.0 0 255 0
5.0 -10.0 10.0 0 255 0
5.0 -10.0 5.0 0 255 0
5.0 -10.0 0.0 4 250 0
5.0 -15.0 50.0 13 241 0
5.0 -15.0 45.0 0 255 0
5.0 -15.0 40.0 0 255 0
5.0 -15.0 35.0 0 255 0
5.0 -15.0 30.0 0 255 0
5.0 -15.0 25.0 0 255 0
5.0 -15.0 20.0 0 255 0
5.0 -15.0 15.0 0 255 0
5.0 -15.0 10.0 0 255 0
5.0 -15.0 5.0 0 255 0
5.0 -15.0 0.0 4 250 0
5.0 -20.0 50.0 13 241 0
5.0 -20.0 45.0 0 255 0
5.0 -20.0 40.0 0 255 0
5.0 -20.0 35.0 0 255 0
5.0 -20.0 30.0 0 255 0
5.0 -20.0 25.0 0 255 0
5.0 -20.0 20.0 0 255 0
5.0 -20.0 15.0 0 255 0
5.0 -20.0 10.0 0 255 0
5.0 -20.0 5.0 0 255 0
5.0 -20.0 0.0 4 250 0
5.0 -25.0 50.0 13 241 0
5.0 -25.0 45.0 0 255 0
5.0 -25.0 40.0 0 255 0
5.0 -25.0 35.0 0 255 0
5.0 -25.0 30.0 0 255 0
5.0 -25.0 25.0 0 255 0
5.0 -25.0 20.0 0 255 0
5.0 -25.0 15.0 0 255 0
5.0 -25.0 10.0 0 255 0
5.0 -25.0 5.0 0 255 0
5.0 -25.0 0.0 3 251 0
5.0 -30.0 50.0 13 241 0
5.0 -30.0 45.0 0 255 0
5.0 -30.0 40.0 0 255 0
5.0 -30.0 35.0 0 255 0
5.0 -30.0 30.0 0 255 0
5.0 -30.0 25.0 0 255 0
5.0 -30.0 20.0 0 255 0
5.0 -30.0 15.0 0 255 0
5.0 -30.0 10.0 0 255 0
5.0 -30.0 5.0 0 255 0
5.0 -30.0 0.0 3 251 0
5.0 -35.0 50.0 13 241 0
5.0 -35.0 45.0 0 255 0
5.0 -35.0 40.0 0 255 0
5.0 -35.0 35.0 0 255 0
5.0 -35.0 30.0 0 255 0
5.0 -35.0 25.0 0 255 0
5.0 -35.0 20.0 0 255 0
5.0 -35.0 15.0 0 255 0
5.0 -35.0 10.0 0 255 0
5.0 -35.0 5.0 0 255 0
5.0 -35.0 0.0 3 251 0
5.0 -40.0 50.0 13 241 0
5.0 -40.0 45.0 0 255 0
5.0 -40.0 40.0 0 255 0
5.0 -40.0 35.0 0 255 0
5.0 -40.0 30.0 0 255 0
5.0 -40.0 25.0 0 255 0
5.0 -40.0 20.0 0 255 0
5.0 -40.0 15.0 0 255 0
5.0 -40.0 10.0 0 255 0
5.0 -40.0 5.0 0 255 0
5.0 -40.0 0.0 3 251 0
5.0 -45.0 50.0 13 241 0
5.0 -45.0 45.0 0 255 0
5.0 -45.0 40.0 0 255 0
5.0 -45.0 35.0 0 255 0
5.0 -45.0 30.0 0 255 0
5.0 -45.0 25.0 0 255 0
5.0 -45.0 20.0 0 255 0
5.0 -45.0 15.0 0 255 0
5.0 -45.0 10.0 0 255 0
5.0 -45.0 5.0 0 255 0
5.0 -45.0 0.0 3 251 0
5.0 -50.0 50.0 13 241 0
5.0 -50.0 45.0 11 243 0
5.0 -50.0 40.0 10 244 0
5.0 -50.0 35.0 9 245 0
5.0 -50.0 30.0 8 246 0
5.0 -50.0 25.0 7 247 0
5.0 -50.0 20.0 6 248 0
5.0 -50.0 15.0 5 249 0
5.0 -50.0 10.0 4 250 0
5.0 -50.0 5.0 3 251 0
5.0 -50.0 0.0 3 251 0
10.0 0.0 50.0 13 241 0
10.0 0.0 45.0 12 242 0
10.0 0.0 40.0 11 243 0
10.0 0.0 35.0 10 244 0
10.0 0.0 30.0 9 245 0
10.0 0.0 25.0 8 246 0
10.0 0.0 20.0 7 247 0
10.0 0.0 15.0 6 248 0
10.0 0.0 10.0 5 249 0
10.0 0.0 5.0 5 249 0
10.0 0.0 0.0 4 250 0
10.0 -5.0 50.0 13 241 0
10.0 -5.0 45.0 0 255 0
10.0 -5.0 40.0 0 255 0
10.0 -5.0 35.0 0 255 0
10.0 -5.0 30.0 0 255 0
10.0 -5.0 25.0 0 255 0
10.0 -5.0 20.0 0 255 0
10.0 -5.0 15.0 0 255 0
10.0 -5.0 10.0 0 255 0
10.0 -5.0 5.0 0 255 0
10.0 -5.0 0.0 4 250 0
10.0 -10.0 50.0 13 241 0
10.0 -10.0 45.0 0 255 0
10.0 -10.0 40.0 0 255 0
10.0 -10.0 35.0 0 255 0
10.0 -10.0 30.0 0 255 0
10.0 -10.0 25.0 0 255 0
10.0 -10.0 20.0 0 255 0
10.0 -10.0 15.0 0 255 0
10.0 -10.0 10.0 0 255 0
10.0 -10.0 5.0 0 255 0
10.0 -10.0 0.0 4 250 0
10.0 -15.0 50.0 13 241 0
10.0 -15.0 45.0 0 255 0
10.0 -15.0 40.0 0 255 0
10.0 -15.0 35.0 0 255 0
10.0 -15.0 30.0 0 255 0
10.0 -15.0 25.0 0 255 0
10.0 -15.0 20.0 0 255 0
10.0 -15.0 15.0 0 255 0
10.0 -15.0 10.0 0 255 0
10.0 -15.0 5.0 0 255 0
10.0 -15.0 0.0 4 250 0
10.0 -20.0 50.0 13 241 0
10.0 -20.0 45.0 0 255 0
10.0 -20.0 40.0 0 255 0
10.0 -20.0 35.0 0 255 0
10.0 -20.0 30.0 0 255 0
10.0 -20.0 25.0 0 255 0
10.0 -20.0 20.0 0 255 0
10.0 -20.0 15.0 0 255 0
10.0 -20.0 10.0 0 255 0
10.0 -20.0 5.0 0 255 0
10.0 -20.0 0.0 3 251 0
10.0 -25.0 50.0 13 241 0
10.0 -25.0 45.0 0 255 0
10.0 -25.0 40.0 0 255 0
10.0 -25.0 35.0 0 255 0
10.0 -25.0 30.0 0 255 0
10.0 -25.0 25.0 0 255 0
10.0 -25.0 20.0 0 255 0
10.0 -25.0 15.0 0 255 0
10.0 -25.0 10.0 0 255 0
10.0 -25.0 5.0 0 255 0
10.0 -25.0 0.0 3 251 0
10.0 -30.0 50.0 13 241 0
10.0 -30.0 45.0 0 255 0
10.0 -30.0 40.0 0 255 0
10.0 -30.0 35.0 0 255 0
10.0 -30.0 30.0 0 255 0
10.0 -30.0 25.0 0 255 0
10.0 -30.0 20.0 0 255 0
10.0 -30.0 15.0 0 255 0
10.0 -30.0 10.0 0 255 0
10.0 -30.0 5.0 0 255 0
10.0 -30.0 0.0 3 251 0
10.0 -35.0 50.0 13 241 0
10.0 -35.0 45.0 0 255 0
10.0 -35.0 40.0 0 255 0
10.0 -35.0 35.0 0 255 0
10.0 -35.0 30.0 0 255 0
10.0 -35.0 25.0 0 255 0
10.0 -35.0 20.0 0 255 0
10.0 -35.0 15.0 0 255 0
10.0 -35.0 10.0 0 255 0
10.0 -35.0 5.0 0 255 0
10.0 -35.0 0.0 3 251 0
10.0 -40.0 50.0 13 241 0
10.0 -40.0 45.0 0 255 0
10.0 -40.0 40.0 0 255 0
10.0 -40.0 35.0 0 255 0
10.0 -40.0 30.0 0 255 0
10.0 -40.0 25.0 0 255 0
10.0 -40.0 20.0 0 255 0
10.0 -40.0 15.0 0 255 0
10.0 -40.0 10.0 0 255 0
10.0 -40.0 5.0 0 255 0
10.0 -40.0 0.0 3 251 0
10.0 -45.0 50.0 13 241 0
10.0 -45.0 45.0 0 255 0
10.0 -45.0 40.0 0 255 0
10.0 -45.0 35.0 0 255 0
10.0 -45.0 30.0 0 255 0
10.0 -45.0 25.0 0 255 0
10.0 -45.0 20.0 0 255 0
10.0 -45.0 15.0 0 255 0
10.0 -45.0 10.0 0 255 0
10.0 -45.0 5.0 0 255 0
10.0 -45.0 0.0 3 251 0
10.0 -50.0 50.0 13 241 0
10.0 -50.0 45.0 11 243 0
10.0 -50.0 40.0 10 244 0
10.0 -50.0 35.0 9 245 0
10.0 -50.0 30.0 8 246 0
10.0 -50.0 25.0 7 247 0
10.0 -50.0 20.0 5 249 0
10.0 -50.0 15.0 4 250 0
10.0 -50.0 10.0 3 251 0
10.0 -50.0 5.0 3 251 0
10.0 -50.0 0.0 3 251 0
15.0 0.0 50.0 13 241 0
15.0 0.0 45.0 12 242 0
15.0 0.0 40.0 11 243 0
15.0 0.0 35.0 10 244 0
15.0 0.0 30.0 8 246 0
15.0 0.0 25.0 7 247 0
15.0 0.0 20.0 6 248 0
15.0 0.0 15.0 6 248 0
15.0 0.0 10.0 5 249 0
15.0 0.0 5.0 4 250 0
15.0 0.0 0.0 4 250 0
15.0 -5.0 50.0 13 241 0
15.0 -5.0 45.0 0 255 0
15.0 -5.0 40.0 0 255 0
15.0 -5.0 35.0 0 255 0
15.0 -5.0 30.0 0 255 0
15.0 -5.0 25.0 0 255 0
15.0 -5.0 20.0 0 255 0
15.0 -5.0 15.0 0 255 0
15.0 -5.0 10.0 0 255 0
15.0 -5.0 5.0 0 255 0
15.0 -5.0 0.0 4 250 0
15.0 -10.0 50.0 13 241 0
15.0 -10.0 45.0 0 255 0
15.0 -10.0 40.0 0 255 0
15.0 -10.0 35.0 0 255 0
15.0 -10.0 30.0 0 255 0
15.0 -10.0 25.0 0 255 0
15.0 -10.0 20.0 0 255 0
15.0 -10.0 15.0 0 255 0
15.0 -10.0 10.0 0 255 0
15.0 -10.0 5.0 0 255 0
15.0 -10.0 0.0 4 250 0
15.0 -15.0 50.0 13 241 0
15.0 -15.0 45.0 0 255 0
15.0 -15.0 40.0 0 255 0
15.0 -15.0 35.0 0 255 0
15.0 -15.0 30.0 0 255 0
15.0 -15.0 25.0 0 255 0
15.0 -15.0 20.0 0 255 0
15.0 -15.0 15.0 0 255 0
15.0 -15.0 10.0 0 255 0
15.0 -15.0 5.0 0 255 0
15.0 -15.0 0.0 3 251 0
15.0 -20.0 50.0 13 241 0
15.0 -20.0 45.0 0 255 0
15.0 -20.0 40.0 0 255 0
15.0 -20.0 35.0 0 255 0
15.0 -20.0 30.0 0 255 0
15.0 -20.0 25.0 0 255 0
15.0 -20.0 20.0 0 255 0
15.0 -20.0 15.0 0 255 0
15.0 -20.0 10.0 0 255 0
15.0 -20.0 5.0 0 255 0
15.0 -20.0 0.0 3 251 0
15.0 -25.0 50.0 13 241 0
15.0 -25.0 45.0 0 255 0
15.0 -25.0 40.0 0 255 0
15.0 -25.0 35.0 0 255 0
15.0 -25.0 30.0 0 255 0
15.0 -25.0 25.0 0 255 0
15.0 -25.0 20.0 0 255 0
15.0 -25.0 15.0 0 255 0
15.0 -25.0 10.0 0 255 0
15.0 -25.0 5.0 0 255 0
15.0 -25.0 0.0 3 251 0
15.0 -30.0 50.0 13 241 0
15.0 -30.0 45.0 0 255 0
15.0 -30.0 40.0 0 255 0
15.0 -30.0 35.0 0 255 0
15.0 -30.0 30.0 0 255 0
15.0 -30.0 25.0 0 255 0
15.0 -30.0 20.0 0 255 0
15.0 -30.0 15.0 0 255 0
15.0 -30.0 10.0 0 255 0
15.0 -30.0 5.0 0 255 0
15.0 -30.0 0.0 3 251 0
15.0 -35.0 50.0 13 241 0
15.0 -35.0 45.0 0 255 0
15.0 -35.0 40.0 0 255 0
15.0 -35.0 35.0 0 255 0
15.0 -35.0 30.0 0 255 0
15.0 -35.0 25.0 0 255 0
15.0 -35.0 20.0 0 255 0
15.0 -35.0 15.0 0 255 0
15.0 -35.0 10.0 0 255 0
15.0 -35.0 5.0 0 255 0
15.0 -35.0 0.0 2 252 0
15.0 -40.0 50.0 13 241 0
15.0 -40.0 45.0 0 255 0
15.0 -40.0 40.0 0 255 0
15.0 -40.0 35.0 0 255 0
15.0 -40.0 30.0 0 255 0
15.0 -40.0 25.0 0 255 0
15.0 -40.0 20.0 0 255 0
15.0 -40.0 15.0 0 255 0
15.0 -40.0 10.0 0 255 0
15.0 -40.0 5.0 0 255 0
15.0 -40.0 0.0 2 252 0
15.0 -45.0 50.0 13 241 0
15.0 -45.0 45.0 0 255 0
15.0 -45.0 40.0 0 255 0
15.0 -45.0 35.0 0 255 0
15.0 -45.0 30.0 0 255 0
15.0 -45.0 25.0 0 255 0
15.0 -45.0 20.0 0 255 0
15.0 -45.0 15.0 0 255 0
15.0 -45.0 10.0 0 255 0
15.0 -45.0 5.0 0 255 0
15.0 -45.0 0.0 2 252 0
15.0 -50.0 50.0 13 241 0
15.0 -50.0 45.0 11 243 0
15.0 -50.0 40.0 10 244 0
15.0 -50.0 35.0 9 245 0
15.0 -50.0 30.0 8 246 0
15.0 -50.0 25.0 6 248 0
15.0 -50.0 20.0 5 249 0
15.0 -50.0 15.0 4 250 0
15.0 -50.0 10.0 3 251 0
15.0 -50.0 5.0 2 252 0
15.0 -50.0 0.0 2 252 0
20.0 0.0 50.0 13 241 0
20.0 0.0 45.0 12 242 0
20.0 0.0 40.0 11 243 0
20.0 0.0 35.0 9 245 0
20.0 0.0 30.0 8 246 0
20.0 0.0 25.0 7 247 0
20.0 0.0 20.0 6 248 0
20.0 0.0 15.0 5 249 0
20.0 0.0 10.0 5 249 0
20.0 0.0 5.0 4 250 0
20.0 0.0 0.0 4 250 0
20.0 -5.0 50.0 13 241 0
20.0 -5.0 45.0 0 255 0
20.0 -5.0 40.0 0 255 0
20.0 -5.0 35.0 0 255 0
20.0 -5.0 30.0 0 255 0
20.0 -5.0 25.0 0 255 0
20.0 -5.0 20.0 0 255 0
20.0 -5.0 15.0 0 255 0
20.0 -5.0 10.0 0 255 0
20.0 -5.0 5.0 0 255 0
20.0 -5.0 0.0 4 250 0
20.0 -10.0 50.0 13 241 0
20.0 -10.0 45.0 0 255 0
20.0 -10.0 40.0 0 255 0
20.0 -10.0 35.0 0 255 0
20.0 -10.0 30.0 0 255 0
20.0 -10.0 25.0 0 255 0
20.0 -10.0 20.0 0 255 0
20.0 -10.0 15.0 0 255 0
20.0 -10.0 10.0 0 255 0
20.0 -10.0 5.0 0 255 0
20.0 -10.0 0.0 3 251 0
20.0 -15.0 50.0 13 241 0
20.0 -15.0 45.0 0 255 0
20.0 -15.0 40.0 0 255 0
20.0 -15.0 35.0 0 255 0
20.0 -15.0 30.0 0 255 0
20.0 -15.0 25.0 0 255 0
20.0 -15.0 20.0 0 255 0
20.0 -15.0 15.0 0 255 0
20.0 -15.0 10.0 0 255 0
20.0 -15.0 5.0 0 255 0
20.0 -15.0 0.0 3 251 0
20.0 -20.0 50.0 13 241 0
20.0 -20.0 45.0 0 255 0
20.0 -20.0 40.0 0 255 0
20.0 -20.0 35.0 0 255 0
20.0 -20.0 30.0 0 255 0
20.0 -20.0 25.0 0 255 0
20.0 -20.0 20.0 0 255 0
20.0 -20.0 15.0 0 255 0
20.0 -20.0 10.0 0 255 0
20.0 -20.0 5.0 0 255 0
20.0 -20.0 0.0 3 251 0
20.0 -25.0 50.0 13 241 0
20.0 -25.0 45.0 0 255 0
20.0 -25.0 40.0 0 255 0
20.0 -25.0 35.0 0 255 0
20.0 -25.0 30.0 0 255 0
20.0 -25.0 25.0 0 255 0
20.0 -25.0 20.0 0 255 0
20.0 -25.0 15.0 0 255 0
20.0 -25.0 10.0 0 255 0
20.0 -25.0 5.0 0 255 0
20.0 -25.0 0.0 2 252 0
20.0 -30.0 50.0 13 241 0
20.0 -30.0 45.0 0 255 0
20.0 -30.0 40.0 0 255 0
20.0 -30.0 35.0 0 255 0
20.0 -30.0 30.0 0 255 0
20.0 -30.0 25.0 0 255 0
20.0 -30.0 20.0 0 255 0
20.0 -30.0 15.0 0 255 0
20.0 -30.0 10.0 0 255 0
20.0 -30.0 5.0 0 255 0
20.0 -30.0 0.0 2 252 0
20.0 -35.0 50.0 13 241 0
20.0 -35.0 45.0 0 255 0
20.0 -35.0 40.0 0 255 0
20.0 -35.0 35.0 0 255 0
20.0 -35.0 30.0 0 255 0
20.0 -35.0 25.0 0 255 0
20.0 -35.0 20.0 0 255 0
20.0 -35.0 15.0 0 255 0
20.0 -35.0 10.0 0 255 0
20.0 -35.0 5.0 0 255 0
20.0 -35.0 0.0 2 252 0
20.0 -40.0 50.0 12 242 0
20.0 -40.0 45.0 0 255 0
20.0 -40.0 40.0 0 255 0
20.0 -40.0 35.0 0 255 0
20.0 -40.0 30.0 0 255 0
20.0 -40.0 25.0 0 255 0
20.0 -40.0 20.0 0 255 0
20.0 -40.0 15.0 0 255 0
20.0 -40.0 10.0 0 255 0
20.0 -40.0 5.0 0 255 0
20.0 -40.0 0.0 2 252 0
20.0 -45.0 50.0 12 242 0
20.0 -45.0 45.0 0 255 0
20.0 -45.0 40.0 0 255 0
20.0 -45.0 35.0 0 255 0
20.0 -45.0 30.0 0 255 0
20.0 -45.0 25.0 0 255 0
20.0 -45.0 20.0 0 255 0
20.0 -45.0 15.0 0 255 0
20.0 -45.0 10.0 0 255 0
20.0 -45.0 5.0 0 255 0
20.0 -45.0 0.0 2 252 0
20.0 -50.0 50.0 12 242 0
20.0 -50.0 45.0 11 243 0
20.0 -50.0 40.0 10 244 0
20.0 -50.0 35.0 9 245 0
20.0 -50.0 30.0 7 247 0
20.0 -50.0 25.0 6 248 0
20.0 -50.0 20.0 5 249 0
20.0 -50.0 15.0 4 250 0
20.0 -50.0 10.0 3 251 0
20.0 -50.0 5.0 2 252 0
20.0 -50.0 0.0 2 252 0
25.0 0.0 50.0 13 241 0
25.0 0.0 45.0 12 242 0
25.0 0.0 40.0 11 243 0
25.0 0.0 35.0 9 245 0
25.0 0.0 30.0 8 246 0
25.0 0.0 25.0 7 247 0
25.0 0.0 20.0 6 248 0
25.0 0.0 15.0 5 249 0
25.0 0.0 10.0 4 250 0
25.0 0.0 5.0 4 250 0
25.0 0.0 0.0 4 250 0
25.0 -5.0 50.0 13 241 0
25.0 -5.0 45.0 0 255 0
25.0 -5.0 40.0 0 255 0
25.0 -5.0 35.0 0 255 0
25.0 -5.0 30.0 0 255 0
25.0 -5.0 25.0 0 255 0
25.0 -5.0 20.0 0 255 0
25.0 -5.0 15.0 0 255 0
25.0 -5.0 10.0 0 255 0
25.0 -5.0 5.0 0 255 0
25.0 -5.0 0.0 3 251 0
25.0 -10.0 50.0 13 241 0
25.0 -10.0 45.0 0 255 0
25.0 -10.0 40.0 0 255 0
25.0 -10.0 35.0 0 255 0
25.0 -10.0 30.0 0 255 0
25.0 -10.0 25.0 0 255 0
25.0 -10.0 20.0 0 255 0
25.0 -10.0 15.0 0 255 0
25.0 -10.0 10.0 0 255 0
25.0 -10.0 5.0 0 255 0
25.0 -10.0 0.0 3 251 0
25.0 -15.0 50.0 13 241 0
25.0 -15.0 45.0 0 255 0
25.0 -15.0 40.0 0 255 0
25.0 -15.0 35.0 0 255 0
25.0 -15.0 30.0 0 255 0
25.0 -15.0 25.0 0 255 0
25.0 -15.0 20.0 0 255 0
25.0 -15.0 15.0 0 255 0
25.0 -15.0 10.0 0 255 0
25.0 -15.0 5.0 0 255 0
25.0 -15.0 0.0 3 251 0
25.0 -20.0 50.0 13 241 0
25.0 -20.0 45.0 0 255 0
25.0 -20.0 40.0 0 255 0
25.0 -20.0 35.0 0 255 0
25.0 -20.0 30.0 0 255 0
25.0 -20.0 25.0 0 255 0
25.0 -20.0 20.0 0 255 0
25.0 -20.0 15.0 0 255 0
25.0 -20.0 10.0 0 255 0
25.0 -20.0 5.0 0 255 0
25.0 -20.0 0.0 2 252 0
25.0 -25.0 50.0 13 241 0
25.0 -25.0 45.0 0 255 0
25.0 -25.0 40.0 0 255 0
25.0 -25.0 35.0 0 255 0
25.0 -25.0 30.0 0 255 0
25.0 -25.0 25.0 0 255 0
25.0 -25.0 20.0 0 255 0
25.0 -25.0 15.0 0 255 0
25.0 -25.0 10.0 0 255 0
25.0 -25.0 5.0 0 255 0
25.0 -25.0 0.0 2 252 0
25.0 -30.0 50.0 12 242 0
25.0 -30.0 45.0 0 255 0
25.0 -30.0 40.0 0 255 0
25.0 -30.0 35.0 0 255 0
25.0 -30.0 30.0 0 255 0
25.0 -30.0 25.0 0 255 0
25.0 -30.0 20.0 0 255 0
25.0 -30.0 15.0 0 255 0
25.0 -30.0 10.0 0 255 0
25.0 -30.0 5.0 0 255 0
25.0 -30.0 0.0 2 252 0
25.0 -35.0 50.0 12 242 0
25.0 -35.0 45.0 0 255 0
25.0 -35.0 40.0 0 255 0
25.0 -35.0 35.0 0 255 0
25.0 -35.0 30.0 0 255 0
25.0 -35.0 25.0 0 255 0
25.0 -35.0 20.0 0 255 0
25.0 -35.0 15.0 0 255 0
25.0 -35.0 10.0 0 255 0
25.0 -35.0 5.0 0 255 0
25.0 -35.0 0.0 2 252 0
25.0 -40.0 50.0 12 242 0
25.0 -40.0 45.0 0 255 0
25.0 -40.0 40.0 0 255 0
25.0 -40.0 35.0 0 255 0
25.0 -40.0 30.0 0 255 0
25.0 -40.0 25.0 0 255 0
25.0 -40.0 20.0 0 255 0
25.0 -40.0 15.0 0 255 0
25.0 -40.0 10.0 0 255 0
25.0 -40.0 5.0 0 255 0
25.0 -40.0 0.0 2 252 0
25.0 -45.0 50.0 12 242 0
25.0 -45.0 45.0 0 255 0
25.0 -45.0 40.0 0 255 0
25.0 -45.0 35.0 0 255 0
25.0 -45.0 30.0 0 255 0
25.0 -45.0 25.0 0 255 0
25.0 -45.0 20.0 0 255 0
25.0 -45.0 15.0 0 255 0
25.0 -45.0 10.0 0 255 0
25.0 -45.0 5.0 0 255 0
25.0 -45.0 0.0 1 253 0
25.0 -50.0 50.0 12 242 0
25.0 -50.0 45.0 11 243 0
25.0 -50.0 40.0 10 244 0
25.0 -50.0 35.0 9 245 0
25.0 -50.0 30.0 7 247 0
25.0 -50.0 25.0 6 248 0
25.0 -50.0 20.0 5 249 0
25.0 -50.0 15.0 4 250 0
25.0 -50.0 10.0 3 251 0
25.0 -50.0 5.0 2 252 0
25.0 -50.0 0.0 1 253 0
30.0 0.0 50.0 13 241 0
30.0 0.0 45.0 12 242 0
30.0 0.0 40.0 11 243 0
30.0 0.0 35.0 9 245 0
30.0 0.0 30.0 8 246 0
30.0 0.0 25.0 7 247 0
30.0 0.0 20.0 6 248 0
30.0 0.0 15.0 5 249 0
30.0 0.0 10.0 4 250 0
30.0 0.0 5.0 4 250 0
30.0 0.0 0.0 4 250 0
30.0 -5.0 50.0 13 241 0
30.0 -5.0 45.0 0 255 0
30.0 -5.0 40.0 0 255 0
30.0 -5.0 35.0 0 255 0
30.0 -5.0 30.0 0 255 0
30.0 -5.0 25.0 0 255 0
30.0 -5.0 20.0 0 255 0
30.0 -5.0 15.0 0 255 0
30.0 -5.0 10.0 0 255 0
30.0 -5.0 5.0 0 255 0
30.0 -5.0 0.0 3 251 0
30.0 -10.0 50.0 13 241 0
30.0 -10.0 45.0 0 255 0
30.0 -10.0 40.0 0 255 0
30.0 -10.0 35.0 0 255 0
30.0 -10.0 30.0 0 255 0
30.0 -10.0 25.0 0 255 0
30.0 -10.0 20.0 0 255 0
30.0 -10.0 15.0 0 255 0
30.0 -10.0 10.0 0 255 0
30.0 -10.0 5.0 0 255 0
30.0 -10.0 0.0 3 251 0
30.0 -15.0 50.0 13 241 0
30.0 -15.0 45.0 0 255 0
30.0 -15.0 40.0 0 255 0
30.0 -15.0 35.0 0 255 0
30.0 -15.0 30.0 0 255 0
30.0 -15.0 25.0 0 255 0
30.0 -15.0 20.0 0 255 0
30.0 -15.0 15.0 0 255 0
30.0 -15.0 10.0 0 255 0
30.0 -15.0 5.0 0 255 0
30.0 -15.0 0.0 3 251 0
30.0 -20.0 50.0 13 241 0
30.0 -20.0 45.0 0 255 0
30.0 -20.0 40.0 0 255 0
30.0 -20.0 35.0 0 255 0
30.0 -20.0 30.0 0 255 0
30.0 -20.0 25.0 0 255 0
30.0 -20.0 20.0 0 255 0
30.0 -20.0 15.0 0 255 0
30.0 -20.0 10.0 0 255 0
30.0 -20.0 5.0 0 255 0
30.0 -20.0 0.0 2 252 0
30.0 -25.0 50.0 12 242 0
30.0 -25.0 45.0 0 255 0
30.0 -25.0 40.0 0 255 0
30.0 -25.0 35.0 0 255 0
30.0 -25.0 30.0 0 255 0
30.0 -25.0 25.0 0 255 0
30.0 -25.0 20.0 0 255 0
30.0 -25.0 15.0 0 255 0
30.0 -25.0 10.0 0 255 0
30.0 -25.0 5.0 0 255 0
30.0 -25.0 0.0 2 252 0
30.0 -30.0 50.0 12 242 0
30.0 -30.0 45.0 0 255 0
30.0 -30.0 40.0 0 255 0
30.0 -30.0 35.0 0 255 0
30.0 -30.0 30.0 0 255 0
30.0 -30.0 25.0 0 255 0
30.0 -30.0 20.0 0 255 0
30.0 -30.0 15.0 0 255 0
30.0 -30.0 10.0 0 255 0
30.0 -30.0 5.0 0 255 0
30.0 -30.0 0.0 2 252 0
30.0 -35.0 50.0 12 242 0
30.0 -35.0 45.0 0 255 0
30.0 -35.0 40.0 0 255 0
30.0 -35.0 35.0 0 255 0
30.0 -35.0 30.0 0 255 0
30.0 -35.0 25.0 0 255 0
30.0 -35.0 20.0 0 255 0
30.0 -35.0 15.0 0 255 0
30.0 -35.0 10.0 0 255 0
30.0 -35.0 5.0 0 255 0
30.0 -35.0 0.0 1 253 0
30.0 -40.0 50.0 12 242 0
30.0 -40.0 45.0 0 255 0
30.0 -40.0 40.0 0 255 0
30.0 -40.0 35.0 0 255 0
30.0 -40.0 30.0 0 255 0
30.0 -40.0 25.0 0 255 0
30.0 -40.0 20.0 0 255 0
30.0 -40.0 15.0 0 255 0
30.0 -40.0 10.0 0 255 0
30.0 -40.0 5.0 0 255 0
30.0 -40.0 0.0 1 253 0
30.0 -45.0 50.0 12 242 0
30.0 -45.0 45.0 0 255 0
30.0 -45.0 40.0 0 255 0
30.0 -45.0 35.0 0 255 0
30.0 -45.0 30.0 0 255 0
30.0 -45.0 25.0 0 255 0
30.0 -45.0 20.0 0 255 0
30.0 -45.0 15.0 0 255 0
30.0 -45.0 10.0 0 255 0
30.0 -45.0 5.0 0 255 0
30.0 -45.0 0.0 1 253 0
30.0 -50.0 50.0 12 242 0
30.0 -50.0 45.0 11 243 0
30.0 -50.0 40.0 10 244 0
30.0 -50.0 35.0 9 245 0
30.0 -50.0 30.0 7 247 0
30.0 -50.0 25.0 6 248 0
30.0 -50.0 20.0 5 249 0
30.0 -50.0 15.0 4 250 0
30.0 -50.0 10.0 2 252 0
30.0 -50.0 5.0 1 253 0
30.0 -50.0 0.0 1 253 0
35.0 0.0 50.0 13 241 0
35.0 0.0 45.0 12 242 0
35.0 0.0 40.0 10 244 0
35.0 0.0 35.0 9 245 0
35.0 0.0 30.0 8 246 0
35.0 0.0 25.0 7 247 0
35.0 0.0 20.0 6 248 0
35.0 0.0 15.0 5 249 0
35.0 0.0 10.0 4 250 0
35.0 0.0 5.0 4 250 0
35.0 0.0 0.0 3 251 0
35.0 -5.0 50.0 13 241 0
35.0 -5.0 45.0 0 255 0
35.0 -5.0 40.0 0 255 0
35.0 -5.0 35.0 0 255 0
35.0 -5.0 30.0 0 255 0
35.0 -5.0 25.0 0 255 0
35.0 -5.0 20.0 0 255 0
35.0 -5.0 15.0 0 255 0
35.0 -5.0 10.0 0 255 0
35.0 -5.0 5.0 0 255 0
35.0 -5.0 0.0 3 251 0
35.0 -10.0 50.0 13 241 0
35.0 -10.0 45.0 0 255 0
35.0 -10.0 40.0 0 255 0
35.0 -10.0 35.0 0 255 0
35.0 -10.0 30.0 0 255 0
35.0 -10.0 25.0 0 255 0
35.0 -10.0 20.0 0 255 0
35.0 -10.0 15.0 0 255 0
35.0 -10.0 10.0 0 255 0
35.0 -10.0 5.0 0 255 0
35.0 -10.0 0.0 3 251 0
35.0 -15.0 50.0 13 241 0
35.0 -15.0 45.0 0 255 0
35.0 -15.0 40.0 0 255 0
35.0 -15.0 35.0 0 255 0
35.0 -15.0 30.0 0 255 0
35.0 -15.0 25.0 0 255 0
35.0 -15.0 20.0 0 255 0
35.0 -15.0 15.0 0 255 0
35.0 -15.0 10.0 0 255 0
35.0 -15.0 5.0 0 255 0
35.0 -15.0 0.0 2 252 0
35.0 -20.0 50.0 13 241 0
35.0 -20.0 45.0 0 255 0
35.0 -20.0 40.0 0 255 0
35.0 -20.0 35.0 0 255 0
35.0 -20.0 30.0 0 255 0
35.0 -20.0 25.0 0 255 0
35.0 -20.0 20.0 0 255 0
35.0 -20.0 15.0 0 255 0
35.0 -20.0 10.0 0 255 0
35.0 -20.0 5.0 0 255 0
35.0 -20.0 0.0 2 252 0
35.0 -25.0 50.0 12 242 0
35.0 -25.0 45.0 0 255 0
35.0 -25.0 40.0 0 255 0
35.0 -25.0 35.0 0 255 0
35.0 -25.0 30.0 0 255 0
35.0 -25.0 25.0 0 255 0
35.0 -25.0 20.0 0 255 0
35.0 -25.0 15.0 0 255 0
35.0 -25.0 10.0 0 255 0
35.0 -25.0 5.0 0 255 0
35.0 -25.0 0.0 2 252 0
35.0 -30.0 50.0 12 242 0
35.0 -30.0 45.0 0 255 0
35.0 -30.0 40.0 0 255 0
35.0 -30.0 35.0 0 255 0
35.0 -30.0 30.0 0 255 0
35.0 -30.0 25.0 0 255 0
35.0 -30.0 20.0 0 255 0
35.0 -30.0 15.0 0 255 0
35.0 -30.0 10.0 0 255 0
35.0 -30.0 5.0 0 255 0
35.0 -30.0 0.0 1 253 0
35.0 -35.0 50.0 12 242 0
35.0 -35.0 45.0 0 255 0
35.0 -35.0 40.0 0 255 0
35.0 -35.0 35.0 0 255 0
35.0 -35.0 30.0 0 255 0
35.0 -35.0 25.0 0 255 0
35.0 -35.0 20.0 0 255 0
35.0 -35.0 15.0 0 255 0
35.0 -35.0 10.0 0 255 0
35.0 -35.0 5.0 0 255 0
35.0 -35.0 0.0 1 253 0
35.0 -40.0 50.0 12 242 0
35.0 -40.0 45.0 0 255 0
35.0 -40.0 40.0 0 255 0
35.0 -40.0 35.0 0 255 0
35.0 -40.0 30.0 0 255 0
35.0 -40.0 25.0 0 255 0
35.0 -40.0 20.0 0 255 0
35.0 -40.0 15.0 0 255 0
35.0 -40.0 10.0 0 255 0
35.0 -40.0 5.0 0 255 0
35.0 -40.0 0.0 1 253 0
35.0 -45.0 50.0 12 242 0
35.0 -45.0 45.0 0 255 0
35.0 -45.0 40.0 0 255 0
35.0 -45.0 35.0 0 255 0
35.0 -45.0 30.0 0 255 0
35.0 -45.0 25.0 0 255 0
35.0 -45.0 20.0 0 255 0
35.0 -45.0 15.0 0 255 0
35.0 -45.0 10.0 0 255 0
35.0 -45.0 5.0 0 255 0
35.0 -45.0 0.0 1 253 0
35.0 -50.0 50.0 12 242 0
35.0 -50.0 45.0 11 243 0
35.0 -50.0 40.0 10 244 0
35.0 -50.0 35.0 8 246 0
35.0 -50.0 30.0 7 247 0
35.0 -50.0 25.0 6 248 0
35.0 -50.0 20.0 5 249 0
35.0 -50.0 15.0 3 251 0
35.0 -50.0 10.0 2 252 0
35.0 -50.0 5.0 1 253 0
35.0 -50.0 0.0 1 253 0
40.0 0.0 50.0 13 241 0
40.0 0.0 45.0 12 242 0
40.0 0.0 40.0 10 244 0
40.0 0.0 35.0 9 245 0
40.0 0.0 30.0 8 246 0
40.0 0.0 25.0 7 247 0
40.0 0.0 20.0 6 248 0
40.0 0.0 15.0 5 249 0
40.0 0.0 10.0 4 250 0
40.0 0.0 5.0 4 250 0
40.0 0.0 0.0 3 251 0
40.0 -5.0 50.0 13 241 0
40.0 -5.0 45.0 0 255 0
40.0 -5.0 40.0 0 255 0
40.0 -5.0 35.0 0 255 0
40.0 -5.0 30.0 0 255 0
40.0 -5.0 25.0 0 255 0
40.0 -5.0 20.0 0 255 0
40.0 -5.0 15.0 0 255 0
40.0 -5.0 10.0 0 255 0
40.0 -5.0 5.0 0 255 0
40.0 -5.0 0.0 3 251 0
40.0 -10.0 50.0 13 241 0
40.0 -10.0 45.0 0 255 0
40.0 -10.0 40.0 0 255 0
40.0 -10.0 35.0 0 255 0
40.0 -10.0 30.0 0 255 0
40.0 -10.0 25.0 0 255 0
40.0 -10.0 20.0 0 255 0
40.0 -10.0 15.0 0 255 0
40.0 -10.0 10.0 0 255 0
40.0 -10.0 5.0 0 255 0
40.0 -10.0 0.0 3 251 0
40.0 -15.0 50.0 13 241 0
40.0 -15.0 45.0 0 255 0
40.0 -15.0 40.0 0 255 0
40.0 -15.0 35.0 0 255 0
40.0 -15.0 30.0 0 255 0
40.0 -15.0 25.0 0 255 0
40.0 -15.0 20.0 0 255 0
40.0 -15.0 15.0 0 255 0
40.0 -15.0 10.0 0 255 0
40.0 -15.0 5.0 0 255 0
40.0 -15.0 0.0 2 252 0
40.0 -20.0 50.0 12 242 0
40.0 -20.0 45.0 0 255 0
40.0 -20.0 40.0 0 255 0
40.0 -20.0 35.0 0 255 0
40.0 -20.0 30.0 0 255 0
40.0 -20.0 25.0 0 255 0
40.0 -20.0 20.0 0 255 0
40.0 -20.0 15.0 0 255 0
40.0 -20.0 10.0 0 255 0
40.0 -20.0 5.0 0 255 0
40.0 -20.0 0.0 2 252 0
40.0 -25.0 50.0 12 242 0
40.0 -25.0 45.0 0 255 0
40.0 -25.0 40.0 0 255 0
40.0 -25.0 35.0 0 255 0
40.0 -25.0 30.0 0 255 0
40.0 -25.0 25.0 0 255 0
40.0 -25.0 20.0 0 255 0
40.0 -25.0 15.0 0 255 0
40.0 -25.0 10.0 0 255 0
40.0 -25.0 5.0 0 255 0
40.0 -25.0 0.0 2 252 0
40.0 -30.0 50.0 12 242 0
40.0 -30.0 45.0 0 255 0
40.0 -30.0 40.0 0 255 0
40.0 -30.0 35.0 0 255 0
40.0 -30.0 30.0 0 255 0
40.0 -30.0 25.0 0 255 0
40.0 -30.0 20.0 0 255 0
40.0 -30.0 15.0 0 255 0
40.0 -30.0 10.0 0 255 0
40.0 -30.0 5.0 0 255 0
40.0 -30.0 0.0 1 253 0
40.0 -35.0 50.0 12 242 0
40.0 -35.0 45.0 0 255 0
40.0 -35.0 40.0 0 255 0
40.0 -35.0 35.0 0 255 0
40.0 -35.0 30.0 0 255 0
40.0 -35.0 25.0 0 255 0
40.0 -35.0 20.0 0 255 0
40.0 -35.0 15.0 0 255 0
40.0 -35.0 10.0 0 255 0
40.0 -35.0 5.0 0 255 0
40.0 -35.0 0.0 1 253 0
40.0 -40.0 50.0 12 242 0
40.0 -40.0 45.0 0 255 0
40.0 -40.0 40.0 0 255 0
40.0 -40.0 35.0 0 255 0
40.0 -40.0 30.0 0 255 0
40.0 -40.0 25.0 0 255 0
40.0 -40.0 20.0 0 255 0
40.0 -40.0 15.0 0 255 0
40.0 -40.0 10.0 0 255 0
40.0 -40.0 5.0 0 255 0
40.0 -40.0 0.0 1 253 0
40.0 -45.0 50.0 12 242 0
40.0 -45.0 45.0 0 255 0
40.0 -45.0 40.0 0 255 0
40.0 -45.0 35.0 0 255 0
40.0 -45.0 30.0 0 255 0
40.0 -45.0 25.0 0 255 0
40.0 -45.0 20.0 0 255 0
40.0 -45.0 15.0 0 255 0
40.0 -45.0 10.0 0 255 0
40.0 -45.0 5.0 0 255 0
40.0 -45.0 0.0 0 254 0
40.0 -50.0 50.0 12 242 0
40.0 -50.0 45.0 11 243 0
40.0 -50.0 40.0 10 244 0
40.0 -50.0 35.0 8 246 0
40.0 -50.0 30.0 7 247 0
40.0 -50.0 25.0 6 248 0
40.0 -50.0 20.0 5 249 0
40.0 -50.0 15.0 3 251 0
40.0 -50.0 10.0 2 252 0
40.0 -50.0 5.0 1 253 0
40.0 -50.0 0.0 0 254 0
45.0 0.0 50.0 13 241 0
45.0 0.0 45.0 12 242 0
45.0 0.0 40.0 10 244 0
45.0 0.0 35.0 9 245 0
45.0 0.0 30.0 8 246 0
45.0 0.0 25.0 7 247 0
45.0 0.0 20.0 6 248 0
45.0 0.0 15.0 5 249 0
45.0 0.0 10.0 4 250 0
45.0 0.0 5.0 4 250 0
45.0 0.0 0.0 3 251 0
45.0 -5.0 50.0 13 241 0
45.0 -5.0 45.0 0 255 0
45.0 -5.0 40.0 0 255 0
45.0 -5.0 35.0 0 255 0
45.0 -5.0 30.0 0 255 0
45.0 -5.0 25.0 0 255 0
45.0 -5.0 20.0 0 255 0
45.0 -5.0 15.0 0 255 0
45.0 -5.0 10.0 0 255 0
45.0 -5.0 5.0 0 255 0
45.0 -5.0 0.0 3 251 0
45.0 -10.0 50.0 13 241 0
45.0 -10.0 45.0 0 255 0
45.0 -10.0 40.0 0 255 0
45.0 -10.0 35.0 0 255 0
45.0 -10.0 30.0 0 255 0
45.0 -10.0 25.0 0 255 0
45.0 -10.0 20.0 0 255 0
45.0 -10.0 15.0 0 255 0
45.0 -10.0 10.0 0 255 0
45.0 -10.0 5.0 0 255 0
45.0 -10.0 0.0 3 251 0
45.0 -15.0 50.0 13 241 0
45.0 -15.0 45.0 0 255 0
45.0 -15.0 40.0 0 255 0
45.0 -15.0 35.0 0 255 0
45.0 -15.0 30.0 0 255 0
45.0 -15.0 25.0 0 255 0
45.0 -15.0 20.0 0 255 0
45.0 -15.0 15.0 0 255 0
45.0 -15.0 10.0 0 255 0
45.0 -15.0 5.0 0 255 0
45.0 -15.0 0.0 2 252 0
45.0 -20.0 50.0 12 242 0
45.0 -20.0 45.0 0 255 0
45.0 -20.0 40.0 0 255 0
45.0 -20.0 35.0 0 255 0
45.0 -20.0 30.0 0 255 0
45.0 -20.0 25.0 0 255 0
45.0 -20.0 20.0 0 255 0
45.0 -20.0 15.0 0 255 0
45.0 -20.0 10.0 0 255 0
45.0 -20.0 5.0 0 255 0
45.0 -20.0 0.0 2 252 0
45.0 -25.0 50.0 12 242 0
45.0 -25.0 45.0 0 255 0
45.0 -25.0 40.0 0 255 0
45.0 -25.0 35.0 0 255 0
45.0 -25.0 30.0 0 255 0
45.0 -25.0 25.0 0 255 0
45.0 -25.0 20.0 0 255 0
45.0 -25.0 15.0 0 255 0
45.0 -25.0 10.0 0 255 0
45.0 -25.0 5.0 0 255 0
45.0 -25.0 0.0 1 253 0
45.0 -30.0 50.0 12 242 0
45.0 -30.0 45.0 0 255 0
45.0 -30.0 40.0 0 255 0
45.0 -30.0 35.0 0 255 0
45.0 -30.0 30.0 0 255 0
45.0 -30.0 25.0 0 255 0
45.0 -30.0 20.0 0 255 0
45.0 -30.0 15.0 0 255 0
45.0 -30.0 10.0 0 255 0
45.0 -30.0 5.0 0 255 0
45.0 -30.0 0.0 1 253 0
45.0 -35.0 50.0 12 242 0
45.0 -35.0 45.0 0 255 0
45.0 -35.0 40.0 0 255 0
45.0 -35.0 35.0 0 255 0
45.0 -35.0 30.0 0 255 0
45.0 -35.0 25.0 0 255 0
45.0 -35.0 20.0 0 255 0
45.0 -35.0 15.0 0 255 0
45.0 -35.0 10.0 0 255 0
45.0 -35.0 5.0 0 255 0
45.0 -35.0 0.0 1 253 0
45.0 -40.0 50.0 12 242 0
45.0 -40.0 45.0 0 255 0
45.0 -40.0 40.0 0 255 0
45.0 -40.0 35.0 0 255 0
45.0 -40.0 30.0 0 255 0
45.0 -40.0 25.0 0 255 0
45.0 -40.0 20.0 0 255 0
45.0 -40.0 15.0 0 255 0
45.0 -40.0 10.0 0 255 0
45.0 -40.0 5.0 0 255 0
45.0 -40.0 0.0 0 254 0
45.0 -45.0 50.0 12 242 0
45.0 -45.0 45.0 0 255 0
45.0 -45.0 40.0 0 255 0
45.0 -45.0 35.0 0 255 0
45.0 -45.0 30.0 0 255 0
45.0 -45.0 25.0 0 255 0
45.0 -45.0 20.0 0 255 0
45.0 -45.0 15.0 0 255 0
45.0 -45.0 10.0 0 255 0
45.0 -45.0 5.0 0 255 0
45.0 -45.0 0.0 0 254 0
45.0 -50.0 50.0 12 242 0
45.0 -50.0 45.0 11 243 0
45.0 -50.0 40.0 10 244 0
45.0 -50.0 35.0 8 246 0
45.0 -50.0 30.0 7 247 0
45.0 -50.0 25.0 6 248 0
45.0 -50.0 20.0 5 249 0
45.0 -50.0 15.0 3 251 0
45.0 -50.0 10.0 2 252 0
45.0 -50.0 5.0 1 253 0
45.0 -50.0 0.0 0 254 0
50.0 0.0 50.0 13 241 0
50.0 0.0 45.0 12 242 0
50.0 0.0 40.0 10 244 0
50.0 0.0 35.0 9 245 0
50.0 0.0 30.0 8 246 0
50.0 0.0 25.0 7 247 0
50.0 0.0 20.0 6 248 0
50.0 0.0 15.0 5 249 0
50.0 0.0 10.0 4 250 0
50.0 0.0 5.0 4 250 0
50.0 0.0 0.0 3 251 0
50.0 -5.0 50.0 13 241 0
50.0 -5.0 45.0 11 243 0
50.0 -5.0 40.0 10 244 0
50.0 -5.0 35.0 9 245 0
50.0 -5.0 30.0 8 246 0
50.0 -5.0 25.0 7 247 0
50.0 -5.0 20.0 6 248 0
50.0 -5.0 15.0 5 249 0
50.0 -5.0 10.0 4 250 0
50.0 -5.0 5.0 3 251 0
50.0 -5.0 0.0 3 251 0
50.0 -10.0 50.0 13 241 0
50.0 -10.0 45.0 11 243 0
50.0 -10.0 40.0 10 244 0
50.0 -10.0 35.0 9 245 0
50.0 -10.0 30.0 8 246 0
50.0 -10.0 25.0 7 247 0
50.0 -10.0 20.0 5 249 0
50.0 -10.0 15.0 4 250 0
50.0 -10.0 10.0 3 251 0
50.0 -10.0 5.0 3 251 0
50.0 -10.0 0.0 3 251 0
50.0 -15.0 50.0 13 241 0
50.0 -15.0 45.0 11 243 0
50.0 -15.0 40.0 10 244 0
50.0 -15.0 35.0 9 245 0
50.0 -15.0 30.0 8 246 0
50.0 -15.0 25.0 6 248 0
50.0 -15.0 20.0 5 249 0
50.0 -15.0 15.0 4 250 0
50.0 -15.0 10.0 3 251 0
50.0 -15.0 5.0 2 252 0
50.0 -15.0 0.0 2 252 0
50.0 -20.0 50.0 12 242 0
50.0 -20.0 45.0 11 243 0
50.0 -20.0 40.0 10 244 0
50.0 -20.0 35.0 9 245 0
50.0 -20.0 30.0 7 247 0
50.0 -20.0 25.0 6 248 0
50.0 -20.0 20.0 5 249 0
50.0 -20.0 15.0 4 250 0
50.0 -20.0 10.0 3 251 0
50.0 -20.0 5.0 2 252 0
50.0 -20.0 0.0 2 252 0
50.0 -25.0 50.0 12 242 0
50.0 -25.0 45.0 11 243 0
50.0 -25.0 40.0 10 244 0
50.0 -25.0 35.0 9 245 0
50.0 -25.0 30.0 7 247 0
50.0 -25.0 25.0 6 248 0
50.0 -25.0 20.0 5 249 0
50.0 -25.0 15.0 4 250 0
50.0 -25.0 10.0 3 251 0
50.0 -25.0 5.0 2 252 0
50.0 -25.0 0.0 1 253 0
50.0 -30.0 50.0 12 242 0
50.0 -30.0 45.0 11 243 0
50.0 -30.0 40.0 10 244 0
50.0 -30.0 35.0 9 245 0
50.0 -30.0 30.0 7 247 0
50.0 -30.0 25.0 6 248 0
50.0 -30.0 20.0 5 249 0
50.0 -30.0 15.0 4 250 0
50.0 -30.0 10.0 2 252 0
50.0 -30.0 5.0 1 253 0
50.0 -30.0 0.0 1 253 0
50.0 -35.0 50.0 12 242 0
50.0 -35.0 45.0 11 243 0
50.0 -35.0 40.0 10 244 0
50.0 -35.0 35.0 8 246 0
50.0 -35.0 30.0 7 247 0
50.0 -35.0 25.0 6 248 0
50.0 -35.0 20.0 5 249 0
50.0 -35.0 15.0 3 251 0
50.0 -35.0 10.0 2 252 0
50.0 -35.0 5.0 1 253 0
50.0 -35.0 0.0 1 253 0
50.0 -40.0 50.0 12 242 0
50.0 -40.0 45.0 11 243 0
50.0 -40.0 40.0 10 244 0
50.0 -40.0 35.0 8 246 0
50.0 -40.0 30.0 7 247 0
50.0 -40.0 25.0 6 248 0
50.0 -40.0 20.0 5 249 0
50.0 -40.0 15.0 3 251 0
50.0 -40.0 10.0 2 252 0
50.0 -40.0 5.0 1 253 0
50.0 -40.0 0.0 0 254 0
50.0 -45.0 50.0 12 242 0
50.0 -45.0 45.0 11 243 0
50.0 -45.0 40.0 10 244 0
50.0 -45.0 35.0 8 246 0
50.0 -45.0 30.0 7 247 0
50.0 -45.0 25.0 6 248 0
50.0 -45.0 20.0 5 249 0
50.0 -45.0 15.0 3 251 0
50.0 -45.0 10.0 2 252 0
50.0 -45.0 5.0 1 253 0
50.0 -45.0 0.0 0 254 0
50.0 -50.0 50.0 12 242 0
50.0 -50.0 45.0 11 243 0
50.0 -50.0 40.0 10 244 0
50.0 -50.0 35.0 8 246 0
50.0 -50.0 30.0 7 247 0
50.0 -50.0 25.0 6 248 0
50.0 -50.0 20.0 5 249 0
50.0 -50.0 15.0 3 251 0
50.0 -50.0 10.0 2 252 0
50.0 -50.0 5.0 1 253 0
50.0 -50.0 0.0 0 255 0
