ply
format ascii 1.0
element vertex 1331
property float x
property float y
property float z
property uchar red
property uchar green
property uchar blue
end_header
0.0 0.0 50.0 23 231 0
0.0 0.0 45.0 38 216 0
0.0 0.0 40.0 52 202 0
0.0 0.0 35.0 74 180 0
0.0 0.0 30.0 106 148 0
0.0 0.0 25.0 145 109 0
0.0 0.0 20.0 185 69 0
0.0 0.0 15.0 221 33 0
0.0 0.0 10.0 249 5 0
0.0 0.0 5.0 255 0 0
0.0 0.0 0.0 255 0 0
0.0 -5.0 50.0 38 216 0
0.0 -5.0 45.0 46 208 0
0.0 -5.0 40.0 54 200 0
0.0 -5.0 35.0 68 186 0
0.0 -5.0 30.0 95 159 0
0.0 -5.0 25.0 131 123 0
0.0 -5.0 20.0 172 82 0
0.0 -5.0 15.0 211 43 0
0.0 -5.0 10.0 244 10 0
0.0 -5.0 5.0 255 0 0
0.0 -5.0 0.0 255 0 0
0.0 -10.0 50.0 57 197 0
0.0 -10.0 45.0 59 195 0
0.0 -10.0 40.0 58 196 0
0.0 -10.0 35.0 62 192 0
0.0 -10.0 30.0 81 173 0
0.0 -10.0 25.0 114 140 0
0.0 -10.0 20.0 153 101 0
0.0 -10.0 15.0 192 62 0
0.0 -10.0 10.0 226 28 0
0.0 -10.0 5.0 248 6 0
0.0 -10.0 0.0 255 0 0
0.0 -15.0 50.0 68 186 0
0.0 -15.0 45.0 66 188 0
0.0 -15.0 40.0 58 196 0
0.0 -15.0 35.0 53 201 0
0.0 -15.0 30.0 60 194 0
0.0 -15.0 25.0 86 168 0
0.0 -15.0 20.0 121 133 0
0.0 -15.0 15.0 159 95 0
0.0 -15.0 10.0 192 62 0
0.0 -15.0 5.0 214 40 0
0.0 -15.0 0.0 222 32 0
0.0 -20.0 50.0 66 188 0
0.0 -20.0 45.0 65 189 0
0.0 -20.0 40.0 59 195 0
0.0 -20.0 35.0 46 208 0
0.0 -20.0 30.0 36 218 0
0.0 -20.0 25.0 46 208 0
0.0 -20.0 20.0 77 177 0
0.0 -20.0 15.0 112 142 0
0.0 -20.0 10.0 143 111 0
0.0 -20.0 5.0 164 90 0
0.0 -20.0 0.0 171 83 0
0.0 -25.0 50.0 64 190 0
0.0 -25.0 45.0 72 182 0
0.0 -25.0 40.0 74 180 0
0.0 -25.0 35.0 65 189 0
0.0 -25.0 30.0 46 208 0
0.0 -25.0 25.0 20 234 0
0.0 -25.0 20.0 23 231 0
0.0 -25.0 15.0 54 200 0
0.0 -25.0 10.0 83 171 0
0.0 -25.0 5.0 103 151 0
0.0 -25.0 0.0 110 144 0
0.0 -30.0 50.0 91 163 0
0.0 -30.0 45.0 104 150 0
0.0 -30.0 40.0 111 143 0
0.0 -30.0 35.0 107 147 0
0.0 -30.0 30.0 91 163 0
0.0 -30.0 25.0 67 187 0
0.0 -30.0 20.0 38 216 0
0.0 -30.0 15.0 10 244 0
0.0 -30.0 10.0 22 232 0
0.0 -30.0 5.0 39 215 0
0.0 -30.0 0.0 45 209 0
0.0 -35.0 50.0 143 111 0
0.0 -35.0 45.0 154 100 0
0.0 -35.0 40.0 159 95 0
0.0 -35.0 35.0 155 99 0
0.0 -35.0 30.0 142 112 0
0.0 -35.0 25.0 121 133 0
0.0 -35.0 20.0 95 159 0
0.0 -35.0 15.0 67 187 0
0.0 -35.0 10.0 44 210 0
0.0 -35.0 5.0 30 224 0
0.0 -35.0 0.0 25 229 0
0.0 -40.0 50.0 197 57 0
0.0 -40.0 45.0 203 51 0
0.0 -40.0 40.0 204 50 0
0.0 -40.0 35.0 200 54 0
0.0 -40.0 30.0 187 67 0
0.0 -40.0 25.0 167 87 0
0.0 -40.0 20.0 142 112 0
0.0 -40.0 15.0 116 138 0
0.0 -40.0 10.0 94 160 0
0.0 -40.0 5.0 78 176 0
0.0 -40.0 0.0 72 182 0
0.0 -45.0 50.0 237 17 0
0.0 -45.0 45.0 239 15 0
0.0 -45.0 40.0 237 17 0
0.0 -45.0 35.0 230 24 0
0.0 -45.0 30.0 217 37 0
0.0 -45.0 25.0 198 56 0
0.0 -45.0 20.0 174 80 0
0.0 -45.0 15.0 149 105 0
0.0 -45.0 10.0 126 128 0
0.0 -45.0 5.0 111 143 0
0.0 -45.0 0.0 105 149 0
0.0 -50.0 50.0 251 3 0
0.0 -50.0 45.0 252 2 0
0.0 -50.0 40.0 248 6 0
0.0 -50.0 35.0 241 13 0
0.0 -50.0 30.0 228 26 0
0.0 -50.0 25.0 208 46 0
0.0 -50.0 20.0 185 69 0
0.0 -50.0 15.0 160 94 0
0.0 -50.0 10.0 138 116 0
0.0 -50.0 5.0 123 131 0
0.0 -50.0 0.0 117 137 0
5.0 0.0 50.0 38 216 0
5.0 0.0 45.0 45 209 0
5.0 0.0 40.0 52 202 0
5.0 0.0 35.0 67 187 0
5.0 0.0 30.0 95 159 0
5.0 0.0 25.0 133 121 0
5.0 0.0 20.0 174 80 0
5.0 0.0 15.0 213 41 0
5.0 0.0 10.0 245 9 0
5.0 0.0 5.0 255 0 0
5.0 0.0 0.0 255 0 0
5.0 -5.0 50.0 52 202 0
5.0 -5.0 45.0 0 255 0
5.0 -5.0 40.0 0 255 0
5.0 -5.0 35.0 0 255 0
5.0 -5.0 30.0 0 255 0
5.0 -5.0 25.0 0 255 0
5.0 -5.0 20.0 0 255 0
5.0 -5.0 15.0 0 255 0
5.0 -5.0 10.0 0 255 0
5.0 -5.0 5.0 0 255 0
5.0 -5.0 0.0 255 0 0
5.0 -10.0 50.0 67 187 0
5.0 -10.0 45.0 0 255 0
5.0 -10.0 40.0 0 255 0
5.0 -10.0 35.0 0 255 0
5.0 -10.0 30.0 0 255 0
5.0 -10.0 25.0 0 255 0
5.0 -10.0 20.0 0 255 0
5.0 -10.0 15.0 0 255 0
5.0 -10.0 10.0 0 255 0
5.0 -10.0 5.0 0 255 0
5.0 -10.0 0.0 255 0 0
5.0 -15.0 50.0 73 181 0
5.0 -15.0 45.0 0 255 0
5.0 -15.0 40.0 0 255 0
5.0 -15.0 35.0 0 255 0
5.0 -15.0 30.0 0 255 0
5.0 -15.0 25.0 0 255 0
5.0 -15.0 20.0 0 255 0
5.0 -15.0 15.0 0 255 0
5.0 -15.0 10.0 0 255 0
5.0 -15.0 5.0 0 255 0
5.0 -15.0 0.0 245 9 0
5.0 -20.0 50.0 66 188 0
5.0 -20.0 45.0 0 255 0
5.0 -20.0 40.0 0 255 0
5.0 -20.0 35.0 0 255 0
5.0 -20.0 30.0 0 255 0
5.0 -20.0 25.0 0 255 0
5.0 -20.0 20.0 0 255 0
5.0 -20.0 15.0 0 255 0
5.0 -20.0 10.0 0 255 0
5.0 -20.0 5.0 0 255 0
5.0 -20.0 0.0 203 51 0
5.0 -25.0 50.0 57 197 0
5.0 -25.0 45.0 0 255 0
5.0 -25.0 40.0 0 255 0
5.0 -25.0 35.0 0 255 0
5.0 -25.0 30.0 0 255 0
5.0 -25.0 25.0 0 255 0
5.0 -25.0 20.0 0 255 0
5.0 -25.0 15.0 0 255 0
5.0 -25.0 10.0 0 255 0
5.0 -25.0 5.0 0 255 0
5.0 -25.0 0.0 149 105 0
5.0 -30.0 50.0 83 171 0
5.0 -30.0 45.0 0 255 0
5.0 -30.0 40.0 0 255 0
5.0 -30.0 35.0 0 255 0
5.0 -30.0 30.0 0 255 0
5.0 -30.0 25.0 0 255 0
5.0 -30.0 20.0 0 255 0
5.0 -30.0 15.0 0 255 0
5.0 -30.0 10.0 0 255 0
5.0 -30.0 5.0 0 255 0
5.0 -30.0 0.0 91 163 0
5.0 -35.0 50.0 138 116 0
5.0 -35.0 45.0 0 255 0
5.0 -35.0 40.0 0 255 0
5.0 -35.0 35.0 0 255 0
5.0 -35.0 30.0 0 255 0
5.0 -35.0 25.0 0 255 0
5.0 -35.0 20.0 0 255 0
5.0 -35.0 15.0 0 255 0
5.0 -35.0 10.0 0 255 0
5.0 -35.0 5.0 0 255 0
5.0 -35.0 0.0 55 199 0
5.0 -40.0 50.0 193 61 0
5.0 -40.0 45.0 0 255 0
5.0 -40.0 40.0 0 255 0
5.0 -40.0 35.0 0 255 0
5.0 -40.0 30.0 0 255 0
5.0 -40.0 25.0 0 255 0
5.0 -40.0 20.0 0 255 0
5.0 -40.0 15.0 0 255 0
5.0 -40.0 10.0 0 255 0
5.0 -40.0 5.0 0 255 0
5.0 -40.0 0.0 71 183 0
5.0 -45.0 50.0 233 21 0
5.0 -45.0 45.0 0 255 0
5.0 -45.0 40.0 0 255 0
5.0 -45.0 35.0 0 255 0
5.0 -45.0 30.0 0 255 0
5.0 -45.0 25.0 0 255 0
5.0 -45.0 20.0 0 255 0
5.0 -45.0 15.0 0 255 0
5.0 -45.0 10.0 0 255 0
5.0 -45.0 5.0 0 255 0
5.0 -45.0 0.0 99 155 0
5.0 -50.0 50.0 248 6 0
5.0 -50.0 45.0 248 6 0
5.0 -50.0 40.0 246 8 0
5.0 -50.0 35.0 239 15 0
5.0 -50.0 30.0 225 29 0
5.0 -50.0 25.0 204 50 0
5.0 -50.0 20.0 179 75 0
5.0 -50.0 15.0 153 101 0
5.0 -50.0 10.0 131 123 0
5.0 -50.0 5.0 116 138 0
5.0 -50.0 0.0 110 144 0
10.0 0.0 50.0 56 198 0
10.0 0.0 45.0 56 198 0
10.0 0.0 40.0 53 201 0
10.0 0.0 35.0 58 196 0
10.0 0.0 30.0 79 175 0
10.0 0.0 25.0 115 139 0
10.0 0.0 20.0 156 98 0
10.0 0.0 15.0 197 57 0
10.0 0.0 10.0 230 24 0
10.0 0.0 5.0 252 2 0
10.0 0.0 0.0 255 0 0
10.0 -5.0 50.0 66 188 0
10.0 -5.0 45.0 0 255 0
10.0 -5.0 40.0 0 255 0
10.0 -5.0 35.0 0 255 0
10.0 -5.0 30.0 0 255 0
10.0 -5.0 25.0 0 255 0
10.0 -5.0 20.0 0 255 0
10.0 -5.0 15.0 0 255 0
10.0 -5.0 10.0 0 255 0
10.0 -5.0 5.0 0 255 0
10.0 -5.0 0.0 255 0 0
10.0 -10.0 50.0 76 178 0
10.0 -10.0 45.0 0 255 0
10.0 -10.0 40.0 0 255 0
10.0 -10.0 35.0 0 255 0
10.0 -10.0 30.0 0 255 0
10.0 -10.0 25.0 0 255 0
10.0 -10.0 20.0 0 255 0
10.0 -10.0 15.0 0 255 0
10.0 -10.0 10.0 0 255 0
10.0 -10.0 5.0 0 255 0
10.0 -10.0 0.0 255 0 0
10.0 -15.0 50.0 79 175 0
10.0 -15.0 45.0 0 255 0
10.0 -15.0 40.0 0 255 0
10.0 -15.0 35.0 0 255 0
10.0 -15.0 30.0 0 255 0
10.0 -15.0 25.0 0 255 0
10.0 -15.0 20.0 0 255 0
10.0 -15.0 15.0 0 255 0
10.0 -15.0 10.0 0 255 0
10.0 -15.0 5.0 0 255 0
10.0 -15.0 0.0 253 1 0
10.0 -20.0 50.0 70 184 0
10.0 -20.0 45.0 0 255 0
10.0 -20.0 40.0 0 255 0
10.0 -20.0 35.0 0 255 0
10.0 -20.0 30.0 0 255 0
10.0 -20.0 25.0 0 255 0
10.0 -20.0 20.0 0 255 0
10.0 -20.0 15.0 0 255 0
10.0 -20.0 10.0 0 255 0
10.0 -20.0 5.0 0 255 0
10.0 -20.0 0.0 218 36 0
10.0 -25.0 50.0 62 192 0
10.0 -25.0 45.0 0 255 0
10.0 -25.0 40.0 0 255 0
10.0 -25.0 35.0 0 255 0
10.0 -25.0 30.0 0 255 0
10.0 -25.0 25.0 0 255 0
10.0 -25.0 20.0 0 255 0
10.0 -25.0 15.0 0 255 0
10.0 -25.0 10.0 0 255 0
10.0 -25.0 5.0 0 255 0
10.0 -25.0 0.0 171 83 0
10.0 -30.0 50.0 83 171 0
10.0 -30.0 45.0 0 255 0
10.0 -30.0 40.0 0 255 0
10.0 -30.0 35.0 0 255 0
10.0 -30.0 30.0 0 255 0
10.0 -30.0 25.0 0 255 0
10.0 -30.0 20.0 0 255 0
10.0 -30.0 15.0 0 255 0
10.0 -30.0 10.0 0 255 0
10.0 -30.0 5.0 0 255 0
10.0 -30.0 0.0 119 135 0
10.0 -35.0 50.0 129 125 0
10.0 -35.0 45.0 0 255 0
10.0 -35.0 40.0 0 255 0
10.0 -35.0 35.0 0 255 0
10.0 -35.0 30.0 0 255 0
10.0 -35.0 25.0 0 255 0
10.0 -35.0 20.0 0 255 0
10.0 -35.0 15.0 0 255 0
10.0 -35.0 10.0 0 255 0
10.0 -35.0 5.0 0 255 0
10.0 -35.0 0.0 78 176 0
10.0 -40.0 50.0 178 76 0
10.0 -40.0 45.0 0 255 0
10.0 -40.0 40.0 0 255 0
10.0 -40.0 35.0 0 255 0
10.0 -40.0 30.0 0 255 0
10.0 -40.0 25.0 0 255 0
10.0 -40.0 20.0 0 255 0
10.0 -40.0 15.0 0 255 0
10.0 -40.0 10.0 0 255 0
10.0 -40.0 5.0 0 255 0
10.0 -40.0 0.0 72 182 0
10.0 -45.0 50.0 213 41 0
10.0 -45.0 45.0 0 255 0
10.0 -45.0 40.0 0 255 0
10.0 -45.0 35.0 0 255 0
10.0 -45.0 30.0 0 255 0
10.0 -45.0 25.0 0 255 0
10.0 -45.0 20.0 0 255 0
10.0 -45.0 15.0 0 255 0
10.0 -45.0 10.0 0 255 0
10.0 -45.0 5.0 0 255 0
10.0 -45.0 0.0 88 166 0
10.0 -50.0 50.0 226 28 0
10.0 -50.0 45.0 228 26 0
10.0 -50.0 40.0 228 26 0
10.0 -50.0 35.0 221 33 0
10.0 -50.0 30.0 208 46 0
10.0 -50.0 25.0 187 67 0
10.0 -50.0 20.0 163 91 0
10.0 -50.0 15.0 138 116 0
10.0 -50.0 10.0 116 138 0
10.0 -50.0 5.0 101 153 0
10.0 -50.0 0.0 96 158 0
15.0 0.0 50.0 69 185 0
15.0 0.0 45.0 65 189 0
15.0 0.0 40.0 54 200 0
15.0 0.0 35.0 46 208 0
15.0 0.0 30.0 55 199 0
15.0 0.0 25.0 86 168 0
15.0 0.0 20.0 126 128 0
15.0 0.0 15.0 166 88 0
15.0 0.0 10.0 200 54 0
15.0 0.0 5.0 222 32 0
15.0 0.0 0.0 230 24 0
15.0 -5.0 50.0 74 180 0
15.0 -5.0 45.0 0 255 0
15.0 -5.0 40.0 0 255 0
15.0 -5.0 35.0 0 255 0
15.0 -5.0 30.0 0 255 0
15.0 -5.0 25.0 0 255 0
15.0 -5.0 20.0 0 255 0
15.0 -5.0 15.0 0 255 0
15.0 -5.0 10.0 0 255 0
15.0 -5.0 5.0 0 255 0
15.0 -5.0 0.0 251 3 0
15.0 -10.0 50.0 79 175 0
15.0 -10.0 45.0 0 255 0
15.0 -10.0 40.0 0 255 0
15.0 -10.0 35.0 0 255 0
15.0 -10.0 30.0 0 255 0
15.0 -10.0 25.0 0 255 0
15.0 -10.0 20.0 0 255 0
15.0 -10.0 15.0 0 255 0
15.0 -10.0 10.0 0 255 0
15.0 -10.0 5.0 0 255 0
15.0 -10.0 0.0 255 0 0
15.0 -15.0 50.0 80 174 0
15.0 -15.0 45.0 0 255 0
15.0 -15.0 40.0 0 255 0
15.0 -15.0 35.0 0 255 0
15.0 -15.0 30.0 0 255 0
15.0 -15.0 25.0 0 255 0
15.0 -15.0 20.0 0 255 0
15.0 -15.0 15.0 0 255 0
15.0 -15.0 10.0 0 255 0
15.0 -15.0 5.0 0 255 0
15.0 -15.0 0.0 244 10 0
15.0 -20.0 50.0 71 183 0
15.0 -20.0 45.0 0 255 0
15.0 -20.0 40.0 0 255 0
15.0 -20.0 35.0 0 255 0
15.0 -20.0 30.0 0 255 0
15.0 -20.0 25.0 0 255 0
15.0 -20.0 20.0 0 255 0
15.0 -20.0 15.0 0 255 0
15.0 -20.0 10.0 0 255 0
15.0 -20.0 5.0 0 255 0
15.0 -20.0 0.0 216 38 0
15.0 -25.0 50.0 61 193 0
15.0 -25.0 45.0 0 255 0
15.0 -25.0 40.0 0 255 0
15.0 -25.0 35.0 0 255 0
15.0 -25.0 30.0 0 255 0
15.0 -25.0 25.0 0 255 0
15.0 -25.0 20.0 0 255 0
15.0 -25.0 15.0 0 255 0
15.0 -25.0 10.0 0 255 0
15.0 -25.0 5.0 0 255 0
15.0 -25.0 0.0 175 79 0
15.0 -30.0 50.0 75 179 0
15.0 -30.0 45.0 0 255 0
15.0 -30.0 40.0 0 255 0
15.0 -30.0 35.0 0 255 0
15.0 -30.0 30.0 0 255 0
15.0 -30.0 25.0 0 255 0
15.0 -30.0 20.0 0 255 0
15.0 -30.0 15.0 0 255 0
15.0 -30.0 10.0 0 255 0
15.0 -30.0 5.0 0 255 0
15.0 -30.0 0.0 129 125 0
15.0 -35.0 50.0 113 141 0
15.0 -35.0 45.0 0 255 0
15.0 -35.0 40.0 0 255 0
15.0 -35.0 35.0 0 255 0
15.0 -35.0 30.0 0 255 0
15.0 -35.0 25.0 0 255 0
15.0 -35.0 20.0 0 255 0
15.0 -35.0 15.0 0 255 0
15.0 -35.0 10.0 0 255 0
15.0 -35.0 5.0 0 255 0
15.0 -35.0 0.0 88 166 0
15.0 -40.0 50.0 155 99 0
15.0 -40.0 45.0 0 255 0
15.0 -40.0 40.0 0 255 0
15.0 -40.0 35.0 0 255 0
15.0 -40.0 30.0 0 255 0
15.0 -40.0 25.0 0 255 0
15.0 -40.0 20.0 0 255 0
15.0 -40.0 15.0 0 255 0
15.0 -40.0 10.0 0 255 0
15.0 -40.0 5.0 0 255 0
15.0 -40.0 0.0 69 185 0
15.0 -45.0 50.0 185 69 0
15.0 -45.0 45.0 0 255 0
15.0 -45.0 40.0 0 255 0
15.0 -45.0 35.0 0 255 0
15.0 -45.0 30.0 0 255 0
15.0 -45.0 25.0 0 255 0
15.0 -45.0 20.0 0 255 0
15.0 -45.0 15.0 0 255 0
15.0 -45.0 10.0 0 255 0
15.0 -45.0 5.0 0 255 0
15.0 -45.0 0.0 72 182 0
15.0 -50.0 50.0 196 58 0
15.0 -50.0 45.0 201 53 0
15.0 -50.0 40.0 201 53 0
15.0 -50.0 35.0 195 59 0
15.0 -50.0 30.0 182 72 0
15.0 -50.0 25.0 163 91 0
15.0 -50.0 20.0 140 114 0
15.0 -50.0 15.0 117 137 0
15.0 -50.0 10.0 96 158 0
15.0 -50.0 5.0 82 172 0
15.0 -50.0 0.0 77 177 0
20.0 0.0 50.0 74 180 0
20.0 0.0 45.0 71 183 0
20.0 0.0 40.0 60 194 0
20.0 0.0 35.0 43 211 0
20.0 0.0 30.0 28 226 0
20.0 0.0 25.0 46 208 0
20.0 0.0 20.0 83 171 0
20.0 0.0 15.0 121 133 0
20.0 0.0 10.0 154 100 0
20.0 0.0 5.0 176 78 0
20.0 0.0 0.0 184 70 0
20.0 -5.0 50.0 71 183 0
20.0 -5.0 45.0 0 255 0
20.0 -5.0 40.0 0 255 0
20.0 -5.0 35.0 0 255 0
20.0 -5.0 30.0 0 255 0
20.0 -5.0 25.0 0 255 0
20.0 -5.0 20.0 0 255 0
20.0 -5.0 15.0 0 255 0
20.0 -5.0 10.0 0 255 0
20.0 -5.0 5.0 0 255 0
20.0 -5.0 0.0 213 41 0
20.0 -10.0 50.0 74 180 0
20.0 -10.0 45.0 0 255 0
20.0 -10.0 40.0 0 255 0
20.0 -10.0 35.0 0 255 0
20.0 -10.0 30.0 0 255 0
20.0 -10.0 25.0 0 255 0
20.0 -10.0 20.0 0 255 0
20.0 -10.0 15.0 0 255 0
20.0 -10.0 10.0 0 255 0
20.0 -10.0 5.0 0 255 0
20.0 -10.0 0.0 224 30 0
20.0 -15.0 50.0 72 182 0
20.0 -15.0 45.0 0 255 0
20.0 -15.0 40.0 0 255 0
20.0 -15.0 35.0 0 255 0
20.0 -15.0 30.0 0 255 0
20.0 -15.0 25.0 0 255 0
20.0 -15.0 20.0 0 255 0
20.0 -15.0 15.0 0 255 0
20.0 -15.0 10.0 0 255 0
20.0 -15.0 5.0 0 255 0
20.0 -15.0 0.0 219 35 0
20.0 -20.0 50.0 61 193 0
20.0 -20.0 45.0 0 255 0
20.0 -20.0 40.0 0 255 0
20.0 -20.0 35.0 0 255 0
20.0 -20.0 30.0 0 255 0
20.0 -20.0 25.0 0 255 0
20.0 -20.0 20.0 0 255 0
20.0 -20.0 15.0 0 255 0
20.0 -20.0 10.0 0 255 0
20.0 -20.0 5.0 0 255 0
20.0 -20.0 0.0 198 56 0
20.0 -25.0 50.0 49 205 0
20.0 -25.0 45.0 0 255 0
20.0 -25.0 40.0 0 255 0
20.0 -25.0 35.0 0 255 0
20.0 -25.0 30.0 0 255 0
20.0 -25.0 25.0 0 255 0
20.0 -25.0 20.0 0 255 0
20.0 -25.0 15.0 0 255 0
20.0 -25.0 10.0 0 255 0
20.0 -25.0 5.0 0 255 0
20.0 -25.0 0.0 164 90 0
20.0 -30.0 50.0 60 194 0
20.0 -30.0 45.0 0 255 0
20.0 -30.0 40.0 0 255 0
20.0 -30.0 35.0 0 255 0
20.0 -30.0 30.0 0 255 0
20.0 -30.0 25.0 0 255 0
20.0 -30.0 20.0 0 255 0
20.0 -30.0 15.0 0 255 0
20.0 -30.0 10.0 0 255 0
20.0 -30.0 5.0 0 255 0
20.0 -30.0 0.0 124 130 0
20.0 -35.0 50.0 95 159 0
20.0 -35.0 45.0 0 255 0
20.0 -35.0 40.0 0 255 0
20.0 -35.0 35.0 0 255 0
20.0 -35.0 30.0 0 255 0
20.0 -35.0 25.0 0 255 0
20.0 -35.0 20.0 0 255 0
20.0 -35.0 15.0 0 255 0
20.0 -35.0 10.0 0 255 0
20.0 -35.0 5.0 0 255 0
20.0 -35.0 0.0 85 169 0
20.0 -40.0 50.0 131 123 0
20.0 -40.0 45.0 0 255 0
20.0 -40.0 40.0 0 255 0
20.0 -40.0 35.0 0 255 0
20.0 -40.0 30.0 0 255 0
20.0 -40.0 25.0 0 255 0
20.0 -40.0 20.0 0 255 0
20.0 -40.0 15.0 0 255 0
20.0 -40.0 10.0 0 255 0
20.0 -40.0 5.0 0 255 0
20.0 -40.0 0.0 61 193 0
20.0 -45.0 50.0 158 96 0
20.0 -45.0 45.0 0 255 0
20.0 -45.0 40.0 0 255 0
20.0 -45.0 35.0 0 255 0
20.0 -45.0 30.0 0 255 0
20.0 -45.0 25.0 0 255 0
20.0 -45.0 20.0 0 255 0
20.0 -45.0 15.0 0 255 0
20.0 -45.0 10.0 0 255 0
20.0 -45.0 5.0 0 255 0
20.0 -45.0 0.0 56 198 0
20.0 -50.0 50.0 167 87 0
20.0 -50.0 45.0 173 81 0
20.0 -50.0 40.0 173 81 0
20.0 -50.0 35.0 166 88 0
20.0 -50.0 30.0 152 102 0
20.0 -50.0 25.0 135 119 0
20.0 -50.0 20.0 114 140 0
20.0 -50.0 15.0 93 161 0
20.0 -50.0 10.0 75 179 0
20.0 -50.0 5.0 62 192 0
20.0 -50.0 0.0 57 197 0
25.0 0.0 50.0 82 172 0
25.0 0.0 45.0 87 167 0
25.0 0.0 40.0 83 171 0
25.0 0.0 35.0 69 185 0
25.0 0.0 30.0 45 209 0
25.0 0.0 25.0 16 238 0
25.0 0.0 20.0 30 224 0
25.0 0.0 15.0 66 188 0
25.0 0.0 10.0 98 156 0
25.0 0.0 5.0 119 135 0
25.0 0.0 0.0 127 127 0
25.0 -5.0 50.0 72 182 0
25.0 -5.0 45.0 0 255 0
25.0 -5.0 40.0 0 255 0
25.0 -5.0 35.0 0 255 0
25.0 -5.0 30.0 0 255 0
25.0 -5.0 25.0 0 255 0
25.0 -5.0 20.0 0 255 0
25.0 -5.0 15.0 0 255 0
25.0 -5.0 10.0 0 255 0
25.0 -5.0 5.0 0 255 0
25.0 -5.0 0.0 160 94 0
25.0 -10.0 50.0 71 183 0
25.0 -10.0 45.0 0 255 0
25.0 -10.0 40.0 0 255 0
25.0 -10.0 35.0 0 255 0
25.0 -10.0 30.0 0 255 0
25.0 -10.0 25.0 0 255 0
25.0 -10.0 20.0 0 255 0
25.0 -10.0 15.0 0 255 0
25.0 -10.0 10.0 0 255 0
25.0 -10.0 5.0 0 255 0
25.0 -10.0 0.0 178 76 0
25.0 -15.0 50.0 65 189 0
25.0 -15.0 45.0 0 255 0
25.0 -15.0 40.0 0 255 0
25.0 -15.0 35.0 0 255 0
25.0 -15.0 30.0 0 255 0
25.0 -15.0 25.0 0 255 0
25.0 -15.0 20.0 0 255 0
25.0 -15.0 15.0 0 255 0
25.0 -15.0 10.0 0 255 0
25.0 -15.0 5.0 0 255 0
25.0 -15.0 0.0 179 75 0
25.0 -20.0 50.0 49 205 0
25.0 -20.0 45.0 0 255 0
25.0 -20.0 40.0 0 255 0
25.0 -20.0 35.0 0 255 0
25.0 -20.0 30.0 0 255 0
25.0 -20.0 25.0 0 255 0
25.0 -20.0 20.0 0 255 0
25.0 -20.0 15.0 0 255 0
25.0 -20.0 10.0 0 255 0
25.0 -20.0 5.0 0 255 0
25.0 -20.0 0.0 165 89 0
25.0 -25.0 50.0 33 221 0
25.0 -25.0 45.0 0 255 0
25.0 -25.0 40.0 0 255 0
25.0 -25.0 35.0 0 255 0
25.0 -25.0 30.0 0 255 0
25.0 -25.0 25.0 0 255 0
25.0 -25.0 20.0 0 255 0
25.0 -25.0 15.0 0 255 0
25.0 -25.0 10.0 0 255 0
25.0 -25.0 5.0 0 255 0
25.0 -25.0 0.0 140 114 0
25.0 -30.0 50.0 49 205 0
25.0 -30.0 45.0 0 255 0
25.0 -30.0 40.0 0 255 0
25.0 -30.0 35.0 0 255 0
25.0 -30.0 30.0 0 255 0
25.0 -30.0 25.0 0 255 0
25.0 -30.0 20.0 0 255 0
25.0 -30.0 15.0 0 255 0
25.0 -30.0 10.0 0 255 0
25.0 -30.0 5.0 0 255 0
25.0 -30.0 0.0 106 148 0
25.0 -35.0 50.0 85 169 0
25.0 -35.0 45.0 0 255 0
25.0 -35.0 40.0 0 255 0
25.0 -35.0 35.0 0 255 0
25.0 -35.0 30.0 0 255 0
25.0 -35.0 25.0 0 255 0
25.0 -35.0 20.0 0 255 0
25.0 -35.0 15.0 0 255 0
25.0 -35.0 10.0 0 255 0
25.0 -35.0 5.0 0 255 0
25.0 -35.0 0.0 73 181 0
25.0 -40.0 50.0 119 135 0
25.0 -40.0 45.0 0 255 0
25.0 -40.0 40.0 0 255 0
25.0 -40.0 35.0 0 255 0
25.0 -40.0 30.0 0 255 0
25.0 -40.0 25.0 0 255 0
25.0 -40.0 20.0 0 255 0
25.0 -40.0 15.0 0 255 0
25.0 -40.0 10.0 0 255 0
25.0 -40.0 5.0 0 255 0
25.0 -40.0 0.0 49 205 0
25.0 -45.0 50.0 143 111 0
25.0 -45.0 45.0 0 255 0
25.0 -45.0 40.0 0 255 0
25.0 -45.0 35.0 0 255 0
25.0 -45.0 30.0 0 255 0
25.0 -45.0 25.0 0 255 0
25.0 -45.0 20.0 0 255 0
25.0 -45.0 15.0 0 255 0
25.0 -45.0 10.0 0 255 0
25.0 -45.0 5.0 0 255 0
25.0 -45.0 0.0 40 214 0
25.0 -50.0 50.0 151 103 0
25.0 -50.0 45.0 155 99 0
25.0 -50.0 40.0 151 103 0
25.0 -50.0 35.0 140 114 0
25.0 -50.0 30.0 125 129 0
25.0 -50.0 25.0 107 147 0
25.0 -50.0 20.0 88 166 0
25.0 -50.0 15.0 70 184 0
25.0 -50.0 10.0 54 200 0
25.0 -50.0 5.0 43 211 0
25.0 -50.0 0.0 39 215 0
30.0 0.0 50.0 111 143 0
30.0 0.0 45.0 121 133 0
30.0 0.0 40.0 123 131 0
30.0 0.0 35.0 114 140 0
30.0 0.0 30.0 94 160 0
30.0 0.0 25.0 65 189 0
30.0 0.0 20.0 32 222 0
30.0 0.0 15.0 14 240 0
30.0 0.0 10.0 37 217 0
30.0 0.0 5.0 57 197 0
30.0 0.0 0.0 64 190 0
30.0 -5.0 50.0 100 154 0
30.0 -5.0 45.0 0 255 0
30.0 -5.0 40.0 0 255 0
30.0 -5.0 35.0 0 255 0
30.0 -5.0 30.0 0 255 0
30.0 -5.0 25.0 0 255 0
30.0 -5.0 20.0 0 255 0
30.0 -5.0 15.0 0 255 0
30.0 -5.0 10.0 0 255 0
30.0 -5.0 5.0 0 255 0
30.0 -5.0 0.0 100 154 0
30.0 -10.0 50.0 93 161 0
30.0 -10.0 45.0 0 255 0
30.0 -10.0 40.0 0 255 0
30.0 -10.0 35.0 0 255 0
30.0 -10.0 30.0 0 255 0
30.0 -10.0 25.0 0 255 0
30.0 -10.0 20.0 0 255 0
30.0 -10.0 15.0 0 255 0
30.0 -10.0 10.0 0 255 0
30.0 -10.0 5.0 0 255 0
30.0 -10.0 0.0 124 130 0
30.0 -15.0 50.0 79 175 0
30.0 -15.0 45.0 0 255 0
30.0 -15.0 40.0 0 255 0
30.0 -15.0 35.0 0 255 0
30.0 -15.0 30.0 0 255 0
30.0 -15.0 25.0 0 255 0
30.0 -15.0 20.0 0 255 0
30.0 -15.0 15.0 0 255 0
30.0 -15.0 10.0 0 255 0
30.0 -15.0 5.0 0 255 0
30.0 -15.0 0.0 132 122 0
30.0 -20.0 50.0 57 197 0
30.0 -20.0 45.0 0 255 0
30.0 -20.0 40.0 0 255 0
30.0 -20.0 35.0 0 255 0
30.0 -20.0 30.0 0 255 0
30.0 -20.0 25.0 0 255 0
30.0 -20.0 20.0 0 255 0
30.0 -20.0 15.0 0 255 0
30.0 -20.0 10.0 0 255 0
30.0 -20.0 5.0 0 255 0
30.0 -20.0 0.0 125 129 0
30.0 -25.0 50.0 42 212 0
30.0 -25.0 45.0 0 255 0
30.0 -25.0 40.0 0 255 0
30.0 -25.0 35.0 0 255 0
30.0 -25.0 30.0 0 255 0
30.0 -25.0 25.0 0 255 0
30.0 -25.0 20.0 0 255 0
30.0 -25.0 15.0 0 255 0
30.0 -25.0 10.0 0 255 0
30.0 -25.0 5.0 0 255 0
30.0 -25.0 0.0 107 147 0
30.0 -30.0 50.0 59 195 0
30.0 -30.0 45.0 0 255 0
30.0 -30.0 40.0 0 255 0
30.0 -30.0 35.0 0 255 0
30.0 -30.0 30.0 0 255 0
30.0 -30.0 25.0 0 255 0
30.0 -30.0 20.0 0 255 0
30.0 -30.0 15.0 0 255 0
30.0 -30.0 10.0 0 255 0
30.0 -30.0 5.0 0 255 0
30.0 -30.0 0.0 82 172 0
30.0 -35.0 50.0 92 162 0
30.0 -35.0 45.0 0 255 0
30.0 -35.0 40.0 0 255 0
30.0 -35.0 35.0 0 255 0
30.0 -35.0 30.0 0 255 0
30.0 -35.0 25.0 0 255 0
30.0 -35.0 20.0 0 255 0
30.0 -35.0 15.0 0 255 0
30.0 -35.0 10.0 0 255 0
30.0 -35.0 5.0 0 255 0
30.0 -35.0 0.0 56 198 0
30.0 -40.0 50.0 124 130 0
30.0 -40.0 45.0 0 255 0
30.0 -40.0 40.0 0 255 0
30.0 -40.0 35.0 0 255 0
30.0 -40.0 30.0 0 255 0
30.0 -40.0 25.0 0 255 0
30.0 -40.0 20.0 0 255 0
30.0 -40.0 15.0 0 255 0
30.0 -40.0 10.0 0 255 0
30.0 -40.0 5.0 0 255 0
30.0 -40.0 0.0 35 219 0
30.0 -45.0 50.0 146 108 0
30.0 -45.0 45.0 0 255 0
30.0 -45.0 40.0 0 255 0
30.0 -45.0 35.0 0 255 0
30.0 -45.0 30.0 0 255 0
30.0 -45.0 25.0 0 255 0
30.0 -45.0 20.0 0 255 0
30.0 -45.0 15.0 0 255 0
30.0 -45.0 10.0 0 255 0
30.0 -45.0 5.0 0 255 0
30.0 -45.0 0.0 25 229 0
30.0 -50.0 50.0 154 100 0
30.0 -50.0 45.0 152 102 0
30.0 -50.0 40.0 142 112 0
30.0 -50.0 35.0 125 129 0
30.0 -50.0 30.0 105 149 0
30.0 -50.0 25.0 85 169 0
30.0 -50.0 20.0 65 189 0
30.0 -50.0 15.0 49 205 0
30.0 -50.0 10.0 36 218 0
30.0 -50.0 5.0 27 227 0
30.0 -50.0 0.0 24 230 0
35.0 0.0 50.0 158 96 0
35.0 0.0 45.0 167 87 0
35.0 0.0 40.0 170 84 0
35.0 0.0 35.0 163 91 0
35.0 0.0 30.0 146 108 0
35.0 0.0 25.0 119 135 0
35.0 0.0 20.0 87 167 0
35.0 0.0 15.0 54 200 0
35.0 0.0 10.0 26 228 0
35.0 0.0 5.0 8 246 0
35.0 0.0 0.0 4 250 0
35.0 -5.0 50.0 150 104 0
35.0 -5.0 45.0 0 255 0
35.0 -5.0 40.0 0 255 0
35.0 -5.0 35.0 0 255 0
35.0 -5.0 30.0 0 255 0
35.0 -5.0 25.0 0 255 0
35.0 -5.0 20.0 0 255 0
35.0 -5.0 15.0 0 255 0
35.0 -5.0 10.0 0 255 0
35.0 -5.0 5.0 0 255 0
35.0 -5.0 0.0 49 205 0
35.0 -10.0 50.0 136 118 0
35.0 -10.0 45.0 0 255 0
35.0 -10.0 40.0 0 255 0
35.0 -10.0 35.0 0 255 0
35.0 -10.0 30.0 0 255 0
35.0 -10.0 25.0 0 255 0
35.0 -10.0 20.0 0 255 0
35.0 -10.0 15.0 0 255 0
35.0 -10.0 10.0 0 255 0
35.0 -10.0 5.0 0 255 0
35.0 -10.0 0.0 76 178 0
35.0 -15.0 50.0 114 140 0
35.0 -15.0 45.0 0 255 0
35.0 -15.0 40.0 0 255 0
35.0 -15.0 35.0 0 255 0
35.0 -15.0 30.0 0 255 0
35.0 -15.0 25.0 0 255 0
35.0 -15.0 20.0 0 255 0
35.0 -15.0 15.0 0 255 0
35.0 -15.0 10.0 0 255 0
35.0 -15.0 5.0 0 255 0
35.0 -15.0 0.0 87 167 0
35.0 -20.0 50.0 88 166 0
35.0 -20.0 45.0 0 255 0
35.0 -20.0 40.0 0 255 0
35.0 -20.0 35.0 0 255 0
35.0 -20.0 30.0 0 255 0
35.0 -20.0 25.0 0 255 0
35.0 -20.0 20.0 0 255 0
35.0 -20.0 15.0 0 255 0
35.0 -20.0 10.0 0 255 0
35.0 -20.0 5.0 0 255 0
35.0 -20.0 0.0 85 169 0
35.0 -25.0 50.0 73 181 0
35.0 -25.0 45.0 0 255 0
35.0 -25.0 40.0 0 255 0
35.0 -25.0 35.0 0 255 0
35.0 -25.0 30.0 0 255 0
35.0 -25.0 25.0 0 255 0
35.0 -25.0 20.0 0 255 0
35.0 -25.0 15.0 0 255 0
35.0 -25.0 10.0 0 255 0
35.0 -25.0 5.0 0 255 0
35.0 -25.0 0.0 73 181 0
35.0 -30.0 50.0 84 170 0
35.0 -30.0 45.0 0 255 0
35.0 -30.0 40.0 0 255 0
35.0 -30.0 35.0 0 255 0
35.0 -30.0 30.0 0 255 0
35.0 -30.0 25.0 0 255 0
35.0 -30.0 20.0 0 255 0
35.0 -30.0 15.0 0 255 0
35.0 -30.0 10.0 0 255 0
35.0 -30.0 5.0 0 255 0
35.0 -30.0 0.0 56 198 0
35.0 -35.0 50.0 113 141 0
35.0 -35.0 45.0 0 255 0
35.0 -35.0 40.0 0 255 0
35.0 -35.0 35.0 0 255 0
35.0 -35.0 30.0 0 255 0
35.0 -35.0 25.0 0 255 0
35.0 -35.0 20.0 0 255 0
35.0 -35.0 15.0 0 255 0
35.0 -35.0 10.0 0 255 0
35.0 -35.0 5.0 0 255 0
35.0 -35.0 0.0 37 217 0
35.0 -40.0 50.0 142 112 0
35.0 -40.0 45.0 0 255 0
35.0 -40.0 40.0 0 255 0
35.0 -40.0 35.0 0 255 0
35.0 -40.0 30.0 0 255 0
35.0 -40.0 25.0 0 255 0
35.0 -40.0 20.0 0 255 0
35.0 -40.0 15.0 0 255 0
35.0 -40.0 10.0 0 255 0
35.0 -40.0 5.0 0 255 0
35.0 -40.0 0.0 21 233 0
35.0 -45.0 50.0 162 92 0
35.0 -45.0 45.0 0 255 0
35.0 -45.0 40.0 0 255 0
35.0 -45.0 35.0 0 255 0
35.0 -45.0 30.0 0 255 0
35.0 -45.0 25.0 0 255 0
35.0 -45.0 20.0 0 255 0
35.0 -45.0 15.0 0 255 0
35.0 -45.0 10.0 0 255 0
35.0 -45.0 5.0 0 255 0
35.0 -45.0 0.0 13 241 0
35.0 -50.0 50.0 170 84 0
35.0 -50.0 45.0 163 91 0
35.0 -50.0 40.0 145 109 0
35.0 -50.0 35.0 121 133 0
35.0 -50.0 30.0 96 158 0
35.0 -50.0 25.0 71 183 0
35.0 -50.0 20.0 50 204 0
35.0 -50.0 15.0 33 221 0
35.0 -50.0 10.0 22 232 0
35.0 -50.0 5.0 15 239 0
35.0 -50.0 0.0 13 241 0
40.0 0.0 50.0 207 47 0
40.0 0.0 45.0 212 42 0
40.0 0.0 40.0 213 41 0
40.0 0.0 35.0 206 48 0
40.0 0.0 30.0 190 64 0
40.0 0.0 25.0 165 89 0
40.0 0.0 20.0 134 120 0
40.0 0.0 15.0 102 152 0
40.0 0.0 10.0 73 181 0
40.0 0.0 5.0 53 201 0
40.0 0.0 0.0 45 209 0
40.0 -5.0 50.0 201 53 0
40.0 -5.0 45.0 0 255 0
40.0 -5.0 40.0 0 255 0
40.0 -5.0 35.0 0 255 0
40.0 -5.0 30.0 0 255 0
40.0 -5.0 25.0 0 255 0
40.0 -5.0 20.0 0 255 0
40.0 -5.0 15.0 0 255 0
40.0 -5.0 10.0 0 255 0
40.0 -5.0 5.0 0 255 0
40.0 -5.0 0.0 47 207 0
40.0 -10.0 50.0 182 72 0
40.0 -10.0 45.0 0 255 0
40.0 -10.0 40.0 0 255 0
40.0 -10.0 35.0 0 255 0
40.0 -10.0 30.0 0 255 0
40.0 -10.0 25.0 0 255 0
40.0 -10.0 20.0 0 255 0
40.0 -10.0 15.0 0 255 0
40.0 -10.0 10.0 0 255 0
40.0 -10.0 5.0 0 255 0
40.0 -10.0 0.0 56 198 0
40.0 -15.0 50.0 153 101 0
40.0 -15.0 45.0 0 255 0
40.0 -15.0 40.0 0 255 0
40.0 -15.0 35.0 0 255 0
40.0 -15.0 30.0 0 255 0
40.0 -15.0 25.0 0 255 0
40.0 -15.0 20.0 0 255 0
40.0 -15.0 15.0 0 255 0
40.0 -15.0 10.0 0 255 0
40.0 -15.0 5.0 0 255 0
40.0 -15.0 0.0 59 195 0
40.0 -20.0 50.0 122 132 0
40.0 -20.0 45.0 0 255 0
40.0 -20.0 40.0 0 255 0
40.0 -20.0 35.0 0 255 0
40.0 -20.0 30.0 0 255 0
40.0 -20.0 25.0 0 255 0
40.0 -20.0 20.0 0 255 0
40.0 -20.0 15.0 0 255 0
40.0 -20.0 10.0 0 255 0
40.0 -20.0 5.0 0 255 0
40.0 -20.0 0.0 55 199 0
40.0 -25.0 50.0 104 150 0
40.0 -25.0 45.0 0 255 0
40.0 -25.0 40.0 0 255 0
40.0 -25.0 35.0 0 255 0
40.0 -25.0 30.0 0 255 0
40.0 -25.0 25.0 0 255 0
40.0 -25.0 20.0 0 255 0
40.0 -25.0 15.0 0 255 0
40.0 -25.0 10.0 0 255 0
40.0 -25.0 5.0 0 255 0
40.0 -25.0 0.0 46 208 0
40.0 -30.0 50.0 111 143 0
40.0 -30.0 45.0 0 255 0
40.0 -30.0 40.0 0 255 0
40.0 -30.0 35.0 0 255 0
40.0 -30.0 30.0 0 255 0
40.0 -30.0 25.0 0 255 0
40.0 -30.0 20.0 0 255 0
40.0 -30.0 15.0 0 255 0
40.0 -30.0 10.0 0 255 0
40.0 -30.0 5.0 0 255 0
40.0 -30.0 0.0 33 221 0
40.0 -35.0 50.0 135 119 0
40.0 -35.0 45.0 0 255 0
40.0 -35.0 40.0 0 255 0
40.0 -35.0 35.0 0 255 0
40.0 -35.0 30.0 0 255 0
40.0 -35.0 25.0 0 255 0
40.0 -35.0 20.0 0 255 0
40.0 -35.0 15.0 0 255 0
40.0 -35.0 10.0 0 255 0
40.0 -35.0 5.0 0 255 0
40.0 -35.0 0.0 20 234 0
40.0 -40.0 50.0 162 92 0
40.0 -40.0 45.0 0 255 0
40.0 -40.0 40.0 0 255 0
40.0 -40.0 35.0 0 255 0
40.0 -40.0 30.0 0 255 0
40.0 -40.0 25.0 0 255 0
40.0 -40.0 20.0 0 255 0
40.0 -40.0 15.0 0 255 0
40.0 -40.0 10.0 0 255 0
40.0 -40.0 5.0 0 255 0
40.0 -40.0 0.0 9 245 0
40.0 -45.0 50.0 182 72 0
40.0 -45.0 45.0 0 255 0
40.0 -45.0 40.0 0 255 0
40.0 -45.0 35.0 0 255 0
40.0 -45.0 30.0 0 255 0
40.0 -45.0 25.0 0 255 0
40.0 -45.0 20.0 0 255 0
40.0 -45.0 15.0 0 255 0
40.0 -45.0 10.0 0 255 0
40.0 -45.0 5.0 0 255 0
40.0 -45.0 0.0 5 249 0
40.0 -50.0 50.0 188 66 0
40.0 -50.0 45.0 178 76 0
40.0 -50.0 40.0 156 98 0
40.0 -50.0 35.0 127 127 0
40.0 -50.0 30.0 96 158 0
40.0 -50.0 25.0 67 187 0
40.0 -50.0 20.0 43 211 0
40.0 -50.0 15.0 25 229 0
40.0 -50.0 10.0 13 241 0
40.0 -50.0 5.0 7 247 0
40.0 -50.0 0.0 5 249 0
45.0 0.0 50.0 242 12 0
45.0 0.0 45.0 245 9 0
45.0 0.0 40.0 243 11 0
45.0 0.0 35.0 236 18 0
45.0 0.0 30.0 219 35 0
45.0 0.0 25.0 195 59 0
45.0 0.0 20.0 165 89 0
45.0 0.0 15.0 133 121 0
45.0 0.0 10.0 105 149 0
45.0 0.0 5.0 85 169 0
45.0 0.0 0.0 78 176 0
45.0 -5.0 50.0 238 16 0
45.0 -5.0 45.0 0 255 0
45.0 -5.0 40.0 0 255 0
45.0 -5.0 35.0 0 255 0
45.0 -5.0 30.0 0 255 0
45.0 -5.0 25.0 0 255 0
45.0 -5.0 20.0 0 255 0
45.0 -5.0 15.0 0 255 0
45.0 -5.0 10.0 0 255 0
45.0 -5.0 5.0 0 255 0
45.0 -5.0 0.0 73 181 0
45.0 -10.0 50.0 215 39 0
45.0 -10.0 45.0 0 255 0
45.0 -10.0 40.0 0 255 0
45.0 -10.0 35.0 0 255 0
45.0 -10.0 30.0 0 255 0
45.0 -10.0 25.0 0 255 0
45.0 -10.0 20.0 0 255 0
45.0 -10.0 15.0 0 255 0
45.0 -10.0 10.0 0 255 0
45.0 -10.0 5.0 0 255 0
45.0 -10.0 0.0 66 188 0
45.0 -15.0 50.0 182 72 0
45.0 -15.0 45.0 0 255 0
45.0 -15.0 40.0 0 255 0
45.0 -15.0 35.0 0 255 0
45.0 -15.0 30.0 0 255 0
45.0 -15.0 25.0 0 255 0
45.0 -15.0 20.0 0 255 0
45.0 -15.0 15.0 0 255 0
45.0 -15.0 10.0 0 255 0
45.0 -15.0 5.0 0 255 0
45.0 -15.0 0.0 56 198 0
45.0 -20.0 50.0 147 107 0
45.0 -20.0 45.0 0 255 0
45.0 -20.0 40.0 0 255 0
45.0 -20.0 35.0 0 255 0
45.0 -20.0 30.0 0 255 0
45.0 -20.0 25.0 0 255 0
45.0 -20.0 20.0 0 255 0
45.0 -20.0 15.0 0 255 0
45.0 -20.0 10.0 0 255 0
45.0 -20.0 5.0 0 255 0
45.0 -20.0 0.0 44 210 0
45.0 -25.0 50.0 125 129 0
45.0 -25.0 45.0 0 255 0
45.0 -25.0 40.0 0 255 0
45.0 -25.0 35.0 0 255 0
45.0 -25.0 30.0 0 255 0
45.0 -25.0 25.0 0 255 0
45.0 -25.0 20.0 0 255 0
45.0 -25.0 15.0 0 255 0
45.0 -25.0 10.0 0 255 0
45.0 -25.0 5.0 0 255 0
45.0 -25.0 0.0 32 222 0
45.0 -30.0 50.0 129 125 0
45.0 -30.0 45.0 0 255 0
45.0 -30.0 40.0 0 255 0
45.0 -30.0 35.0 0 255 0
45.0 -30.0 30.0 0 255 0
45.0 -30.0 25.0 0 255 0
45.0 -30.0 20.0 0 255 0
45.0 -30.0 15.0 0 255 0
45.0 -30.0 10.0 0 255 0
45.0 -30.0 5.0 0 255 0
45.0 -30.0 0.0 21 233 0
45.0 -35.0 50.0 151 103 0
45.0 -35.0 45.0 0 255 0
45.0 -35.0 40.0 0 255 0
45.0 -35.0 35.0 0 255 0
45.0 -35.0 30.0 0 255 0
45.0 -35.0 25.0 0 255 0
45.0 -35.0 20.0 0 255 0
45.0 -35.0 15.0 0 255 0
45.0 -35.0 10.0 0 255 0
45.0 -35.0 5.0 0 255 0
45.0 -35.0 0.0 11 243 0
45.0 -40.0 50.0 177 77 0
45.0 -40.0 45.0 0 255 0
45.0 -40.0 40.0 0 255 0
45.0 -40.0 35.0 0 255 0
45.0 -40.0 30.0 0 255 0
45.0 -40.0 25.0 0 255 0
45.0 -40.0 20.0 0 255 0
45.0 -40.0 15.0 0 255 0
45.0 -40.0 10.0 0 255 0
45.0 -40.0 5.0 0 255 0
45.0 -40.0 0.0 4 250 0
45.0 -45.0 50.0 196 58 0
45.0 -45.0 45.0 0 255 0
45.0 -45.0 40.0 0 255 0
45.0 -45.0 35.0 0 255 0
45.0 -45.0 30.0 0 255 0
45.0 -45.0 25.0 0 255 0
45.0 -45.0 20.0 0 255 0
45.0 -45.0 15.0 0 255 0
45.0 -45.0 10.0 0 255 0
45.0 -45.0 5.0 0 255 0
45.0 -45.0 0.0 0 254 0
45.0 -50.0 50.0 202 52 0
45.0 -50.0 45.0 190 64 0
45.0 -50.0 40.0 165 89 0
45.0 -50.0 35.0 133 121 0
45.0 -50.0 30.0 99 155 0
45.0 -50.0 25.0 68 186 0
45.0 -50.0 20.0 42 212 0
45.0 -50.0 15.0 23 231 0
45.0 -50.0 10.0 10 244 0
45.0 -50.0 5.0 4 250 0
45.0 -50.0 0.0 2 252 0
50.0 0.0 50.0 255 0 0
50.0 0.0 45.0 255 0 0
50.0 0.0 40.0 254 0 0
50.0 0.0 35.0 246 8 0
50.0 0.0 30.0 230 24 0
50.0 0.0 25.0 206 48 0
50.0 0.0 20.0 176 78 0
50.0 0.0 15.0 144 110 0
50.0 0.0 10.0 116 138 0
50.0 0.0 5.0 97 157 0
50.0 0.0 0.0 90 164 0
50.0 -5.0 50.0 251 3 0
50.0 -5.0 45.0 253 1 0
50.0 -5.0 40.0 253 1 0
50.0 -5.0 35.0 247 7 0
50.0 -5.0 30.0 231 23 0
50.0 -5.0 25.0 205 49 0
50.0 -5.0 20.0 173 81 0
50.0 -5.0 15.0 140 114 0
50.0 -5.0 10.0 111 143 0
50.0 -5.0 5.0 91 163 0
50.0 -5.0 0.0 84 170 0
50.0 -10.0 50.0 227 27 0
50.0 -10.0 45.0 232 22 0
50.0 -10.0 40.0 235 19 0
50.0 -10.0 35.0 230 24 0
50.0 -10.0 30.0 215 39 0
50.0 -10.0 25.0 191 63 0
50.0 -10.0 20.0 161 93 0
50.0 -10.0 15.0 129 125 0
50.0 -10.0 10.0 100 154 0
50.0 -10.0 5.0 80 174 0
50.0 -10.0 0.0 73 181 0
50.0 -15.0 50.0 192 62 0
50.0 -15.0 45.0 202 52 0
50.0 -15.0 40.0 207 47 0
50.0 -15.0 35.0 204 50 0
50.0 -15.0 30.0 191 63 0
50.0 -15.0 25.0 169 85 0
50.0 -15.0 20.0 141 113 0
50.0 -15.0 15.0 112 142 0
50.0 -15.0 10.0 85 169 0
50.0 -15.0 5.0 66 188 0
50.0 -15.0 0.0 59 195 0
50.0 -20.0 50.0 156 98 0
50.0 -20.0 45.0 169 85 0
50.0 -20.0 40.0 175 79 0
50.0 -20.0 35.0 172 82 0
50.0 -20.0 30.0 161 93 0
50.0 -20.0 25.0 141 113 0
50.0 -20.0 20.0 117 137 0
50.0 -20.0 15.0 91 163 0
50.0 -20.0 10.0 68 186 0
50.0 -20.0 5.0 50 204 0
50.0 -20.0 0.0 44 210 0
50.0 -25.0 50.0 133 121 0
50.0 -25.0 45.0 145 109 0
50.0 -25.0 40.0 148 106 0
50.0 -25.0 35.0 143 111 0
50.0 -25.0 30.0 131 123 0
50.0 -25.0 25.0 113 141 0
50.0 -25.0 20.0 92 162 0
50.0 -25.0 15.0 70 184 0
50.0 -25.0 10.0 50 204 0
50.0 -25.0 5.0 35 219 0
50.0 -25.0 0.0 30 224 0
50.0 -30.0 50.0 136 118 0
50.0 -30.0 45.0 139 115 0
50.0 -30.0 40.0 134 120 0
50.0 -30.0 35.0 123 131 0
50.0 -30.0 30.0 107 147 0
50.0 -30.0 25.0 88 166 0
50.0 -30.0 20.0 68 186 0
50.0 -30.0 15.0 50 204 0
50.0 -30.0 10.0 34 220 0
50.0 -30.0 5.0 23 231 0
50.0 -30.0 0.0 18 236 0
50.0 -35.0 50.0 157 97 0
50.0 -35.0 45.0 152 102 0
50.0 -35.0 40.0 138 116 0
50.0 -35.0 35.0 117 137 0
50.0 -35.0 30.0 94 160 0
50.0 -35.0 25.0 72 182 0
50.0 -35.0 20.0 51 203 0
50.0 -35.0 15.0 34 220 0
50.0 -35.0 10.0 21 233 0
50.0 -35.0 5.0 13 241 0
50.0 -35.0 0.0 9 245 0
50.0 -40.0 50.0 182 72 0
50.0 -40.0 45.0 172 82 0
50.0 -40.0 40.0 151 103 0
50.0 -40.0 35.0 124 130 0
50.0 -40.0 30.0 94 160 0
50.0 -40.0 25.0 66 188 0
50.0 -40.0 20.0 43 211 0
50.0 -40.0 15.0 25 229 0
50.0 -40.0 10.0 13 241 0
50.0 -40.0 5.0 6 248 0
50.0 -40.0 0.0 4 250 0
50.0 -45.0 50.0 201 53 0
50.0 -45.0 45.0 189 65 0
50.0 -45.0 40.0 164 90 0
50.0 -45.0 35.0 132 122 0
50.0 -45.0 30.0 99 155 0
50.0 -45.0 25.0 67 187 0
50.0 -45.0 20.0 41 213 0
50.0 -45.0 15.0 22 232 0
50.0 -45.0 10.0 10 244 0
50.0 -45.0 5.0 3 251 0
50.0 -45.0 0.0 1 253 0
50.0 -50.0 50.0 207 47 0
50.0 -50.0 45.0 195 59 0
50.0 -50.0 40.0 169 85 0
50.0 -50.0 35.0 136 118 0
50.0 -50.0 30.0 101 153 0
50.0 -50.0 25.0 69 185 0
50.0 -50.0 20.0 42 212 0
50.0 -50.0 15.0 22 232 0
50.0 -50.0 10.0 10 244 0
50.0 -50.0 5.0 3 251 0
50.0 -50.0 0.0 0 255 0
